<svg xmlns="http://www.w3.org/2000/svg" width="16" height="16" viewBox="0 0 16 16">
  <path fill="#1B2C4B" fill-rule="nonzero" d="M8 4c1.1 0 2 .9 2 2s-.9 2-2 2-2-.9-2-2 .9-2 2-2zm0-1C6.3 3 5 4.3 5 6s1.3 3 3 3 3-1.3 3-3-1.3-3-3-3zm0 8c1.8 0 3.4.9 4.5 2.4-1.2 1-2.8 1.6-4.4 1.6-1.7 0-3.2-.6-4.5-1.6C4.6 11.9 6.3 11 8 11zm0-1c-2.5 0-4.6 1.4-5.7 3.6C3.8 15.1 5.8 16 8 16s4.3-.9 5.7-2.4C12.6 11.5 10.5 10 8 10zm0-9c3.9 0 7 3.1 7 7s-3.1 7-7 7-7-3.1-7-7 3.2-7 7-7zm0-1C3.6 0 0 3.6 0 8s3.6 8 8 8 8-3.6 8-8-3.5-8-8-8z"/>
</svg>
