<svg xmlns="http://www.w3.org/2000/svg" xmlns:xlink="http://www.w3.org/1999/xlink" width="16" height="16" viewBox="0 0 16 16">
    <defs>
        <path id="a" d="M15 0h-5a1 1 0 0 0-1 1H2a1 1 0 0 0-1 1v3H0v1h1v2H0v1h1v2H0v1h1v3a1 1 0 0 0 1 1h10a1 1 0 0 0 1-1V7h2a1 1 0 0 0 1-1V1a1 1 0 0 0-1-1zm-3 15H2v-3h1v-1H2V9h1V8H2V6h1V5H2V2h7v4a1 1 0 0 0 1 1h2v8zm3-11h-2v2h-1V4h-2V3h2V1h1v2h2v1zM5 9h5v1H5V9zm0 2h5v1H5v-1z"/>
    </defs>
    <g fill="none" fill-rule="evenodd">
        <use fill="#1B2C4B" fill-rule="nonzero" xlink:href="#a"/>
    </g>
</svg>
