<svg xmlns="http://www.w3.org/2000/svg" xmlns:xlink="http://www.w3.org/1999/xlink" width="16" height="16" viewBox="0 0 16 16">
    <path fill="#1B2C4B" fill-rule="nonzero" d="M11.946 11.382l2.714-2.73a.473.473 0 0 1 .694 0 .502.502 0 0 1 0 .71l-2.704 2.73-.347.35a.493.493 0 0 1-.703 0l-1.05-1.06a.505.505 0 0 1 0-.71.494.494 0 0 1 .703 0l.693.71zm.26-1.882H9.415v4h3.962v-.94l.99-1v1.94c0 .552-.443 1-.99 1H9.414a.995.995 0 0 1-.99-1v-4c0-.552.443-1 .99-1h3.783l-.99 1zm-6.754-8H1.49a.995.995 0 0 0-.99 1v4c0 .552.443 1 .99 1h3.962c.547 0 .99-.448.99-1v-4c0-.552-.443-1-.99-1zm0 1v4H1.49v-4h3.962zM1.49 9h.99v2h1.982V8.5l2.971 3-2.971 3V12H1.49V9z"/>
</svg>
