<svg xmlns="http://www.w3.org/2000/svg" width="18" height="19" viewBox="0 0 18 19">
    <g fill="none" fill-rule="evenodd">
        <path fill="#FFE831" d="M11 15v-1.39a1 1 0 0 1 .45-.84 4.5 4.5 0 1 0-4.9 0 1 1 0 0 1 .45.84V15h4z"/>
        <path fill="#293956" d="M6 18h6a1 1 0 0 1-1 1H7a1 1 0 0 1-1-1zm11.5-8.5H16a.5.5 0 1 1 0-1h1.5a.5.5 0 1 1 0 1zM15.06 6a.5.5 0 0 1-.25-.93l1.3-.75a.5.5 0 0 1 .5.86l-1.3.75a.45.45 0 0 1-.25.07zM12.5 3.44a.47.47 0 0 1-.25-.07.49.49 0 0 1-.18-.68l.75-1.3a.5.5 0 1 1 .86.5l-.75 1.3a.5.5 0 0 1-.43.25zM9 2.5a.5.5 0 0 1-.5-.5V.5a.5.5 0 0 1 1 0V2a.5.5 0 0 1-.5.5zm-3.5.94a.5.5 0 0 1-.43-.25l-.75-1.3a.5.5 0 1 1 .86-.5l.75 1.3a.49.49 0 0 1-.18.68.47.47 0 0 1-.25.07zM2.94 6a.45.45 0 0 1-.25-.07l-1.3-.75a.5.5 0 0 1 .5-.86l1.3.75a.5.5 0 0 1-.25.93zM2 9.5H.5a.5.5 0 0 1 0-1H2a.5.5 0 0 1 0 1zm9 5.5v-1.39a1 1 0 0 1 .45-.84 4.5 4.5 0 1 0-4.9 0 1 1 0 0 1 .45.84V15h4zM3.5 9a5.5 5.5 0 1 1 8.5 4.61V16H6v-2.39A5.48 5.48 0 0 1 3.5 9z"/>
    </g>
</svg>
