<svg xmlns="http://www.w3.org/2000/svg" xmlns:xlink="http://www.w3.org/1999/xlink" width="16" height="16" viewBox="0 0 16 16">
    <defs>
        <path id="a" d="M15 9.002h-4.999a.93.93 0 0 0-.24 0l-1.41-1.38a.48.48 0 0 0-.7 0 .5.5 0 0 0 0 .71l1.4 1.4a.93.93 0 0 0-.05.27V15a1 1 0 0 0 1 1h5A1 1 0 0 0 16 15v-4.999a1 1 0 0 0-1-1zM15 15h-4.999v-4.319l1.55 1.55a.93.93 0 0 0-.05.24 1 1 0 1 0 1-1 .93.93 0 0 0-.24 0l-1.55-1.47h4.29v5zM3.512 5.503a1 1 0 1 0 0-2 1 1 0 0 0 0 2zm-.4 3.499a4 4 0 0 1-2.24-.68.51.51 0 0 1-.14-.7.52.52 0 0 1 .7-.13 3 3 0 0 0 3.74-.29 2.62 2.62 0 0 0 .31-3.499.5.5 0 1 1 .8-.6 3.599 3.599 0 0 1-.42 4.819 4 4 0 0 1-2.75 1.08zm-1.98-2.9a.51.51 0 0 1-.4-.2 3.589 3.589 0 0 1 .42-4.808 4 4 0 0 1 5-.4.51.51 0 0 1 .13.69.49.49 0 0 1-.69.13 3 3 0 0 0-3.75.3 2.62 2.62 0 0 0-.31 3.499.48.48 0 0 1-.1.69.47.47 0 0 1-.3.1z"/>
    </defs>
    <g fill="none" fill-rule="evenodd">
        <use fill="#1B2C4B" fill-rule="nonzero" xlink:href="#a"/>
    </g>
</svg>
