<svg xmlns="http://www.w3.org/2000/svg" width="16" height="16" viewBox="0 0 16 16">
  <path fill="#1B2C4B" fill-rule="nonzero" d="M12.41 7.82l2.74-2.73a.48.48 0 0 1 .7 0 .5.5 0 0 1 0 .71l-2.73 2.73-.35.35a.5.5 0 0 1-.71 0L11 7.82a.502.502 0 1 1 .71-.71l.7.71zM12.82 6H10v4h4v-.94l1-1V10a1 1 0 0 1-1 1h-4a1 1 0 0 1-1-1V6a1 1 0 0 1 1-1h3.82l-1 1zM.5 2h15a.5.5 0 1 1 0 1H.5a.5.5 0 0 1 0-1zm0 11h15a.5.5 0 1 1 0 1H.5a.5.5 0 1 1 0-1zM6 6v4H2V6h4zm0-1H2a1 1 0 0 0-1 1v4a1 1 0 0 0 1 1h4a1 1 0 0 0 1-1V6a1 1 0 0 0-1-1z"/>
</svg>
