<svg xmlns="http://www.w3.org/2000/svg" width="16" height="16" viewBox="0 0 16 16">
    <g fill="none" fill-rule="evenodd">
        <path fill="#1B2C4B" fill-rule="nonzero" d="M6.112 5.696a.248.248 0 0 1 .104 0l4.48 2.4-4.48 2.4a.248.248 0 0 1-.104 0 .336.336 0 0 1-.112 0V5.72a.336.336 0 0 1 .112 0v-.024zm0-.776a.856.856 0 0 0-.912.8v4.864a.856.856 0 0 0 .912.8c.167-.002.332-.043.48-.12l4.584-2.4a.736.736 0 0 0 0-1.296l-4.584-2.4a1.064 1.064 0 0 0-.48-.12V4.92zM8 .8a7.2 7.2 0 1 1 0 14.4A7.2 7.2 0 0 1 8 .8zM8 0a8 8 0 1 0 0 16A8 8 0 0 0 8 0z"/>
    </g>
</svg>
