<svg xmlns="http://www.w3.org/2000/svg" xmlns:xlink="http://www.w3.org/1999/xlink" width="16" height="16" viewBox="0 0 16 16">
    <defs>
        <path id="a" d="M12 7.05V2a1 1 0 0 0-1-1H9V0H8v1H6.5V0h-1v1H4V0H3v1H1a1 1 0 0 0-1 1v10a1 1 0 0 0 1 1h6.28A4.49 4.49 0 1 0 12 7.05zM7.05 12H1V2h2v1h1V2h1.5v1h1V2H8v1h1V2h2v5.05a4.5 4.5 0 0 0-2 .75V5H7v1h1v2.71a4.4 4.4 0 0 0-1 2.79c.007.168.023.334.05.5zm4.45 3a3.5 3.5 0 1 1 0-7 3.5 3.5 0 0 1 0 7zM11 9.5v2h-1v1h2v-3h-1zM5 5H3v1h2v1H4v1h1v1H3v1h3V5H5z"/>
    </defs>
    <g fill="none" fill-rule="evenodd">
        <use fill="#1B2C4B" fill-rule="nonzero" xlink:href="#a"/>
    </g>
</svg>
