<svg xmlns="http://www.w3.org/2000/svg" xmlns:xlink="http://www.w3.org/1999/xlink" width="16" height="16" viewBox="0 0 16 16">
    <defs>
        <path id="a" d="M8.45 1l.38 1.45L9 3l.58.14c.204.062.399.149.58.26l.31.16.53.27.49-.34 1.21-.83.63.63-.83 1.21-.39.56.38.56c.159.244.28.51.36.79l.15.61.61.13 1.39.32v1l-1.51.32-.61.21-.15.61a2.28 2.28 0 0 1-.26.57c-.05.11-.11.21-.16.32L12 11l.34.49.83 1.21-.63.63-1.21-.83-.56-.39-.56.38a2.9 2.9 0 0 1-.79.36l-.57.15-.13.61L8.43 15H7.5l-.32-1.51-.1-.49-.43-.21a5.64 5.64 0 0 0-.58-.25 2.32 2.32 0 0 1-.41-.19L5.09 12l-.56.39-1.22.84-.61-.56.82-1.19.39-.56-.38-.56a2.9 2.9 0 0 1-.36-.79L3 9l-.61-.13L1 8.53v-1l1.45-.22.66-.1.16-.65a5 5 0 0 1 .32-1L3.86 5l-.34-.49-.82-1.17.67-.62 1.16.8.47.34.53-.27a4.77 4.77 0 0 1 .72-.26l.25-.08.55-.18.11-.57.32-1.5h1-.03zm.45-1H7c-.2 0-.4.1-.4.3l-.4 2a7.6 7.6 0 0 0-1.1.4L3.5 1.6a.3.3 0 0 0-.2-.07.33.33 0 0 0-.3.17L1.6 3c-.1.1-.2.4 0 .5l1.1 1.6a5.64 5.64 0 0 0-.4 1.2l-2 .3c-.2.1-.3.2-.3.4v2c0 .2.1.4.3.4l1.9.4a3.7 3.7 0 0 0 .5 1.1l-1.1 1.6a.45.45 0 0 0 0 .5L3 14.3a.46.46 0 0 0 .3.12.22.22 0 0 0 .2-.12l1.6-1.1c.358.185.725.352 1.1.5l.4 1.9a.37.37 0 0 0 .4.4h1.9c.2 0 .4-.1.4-.3l.4-1.9a3.7 3.7 0 0 0 1.1-.5l1.6 1.1a.67.67 0 0 0 .29.08.29.29 0 0 0 .21-.08l1.4-1.4c.1-.1.2-.4 0-.5l-1.1-1.6a5.36 5.36 0 0 0 .5-1.1l1.9-.4c.3-.1.4-.2.4-.4V7c0-.2-.1-.3-.3-.4l-1.9-.4a3.7 3.7 0 0 0-.5-1.1l1.1-1.6a.45.45 0 0 0 0-.5L13 1.6a.46.46 0 0 0-.3-.12.22.22 0 0 0-.2.12l-1.6 1.1a5.36 5.36 0 0 0-1.1-.5L9.3.3c0-.2-.2-.3-.4-.3zM8 6a2 2 0 1 1 0 4 2 2 0 0 1 0-4zm0-1a3 3 0 1 0 0 6 3 3 0 0 0 0-6z"/>
    </defs>
    <g fill="none" fill-rule="evenodd">
        <use fill="#1B2C4B" fill-rule="nonzero" xlink:href="#a"/>
    </g>
</svg>
