<svg xmlns="http://www.w3.org/2000/svg" width="173" height="132" viewBox="0 0 173 132">
    <g fill="none" fill-rule="evenodd">
        <path fill="#E9F4FF" d="M166.11 111c.79-10.83-6-17.64-15.85-20.12-38.71-9.72-79.59-6.85-117.11 6.34-9 3.15-13.46 15.49-9.38 23.84 4.56 9.34 14.26 12.75 23.84 9.38 2.29-.81 4.6-1.56 6.92-2.32l1.57-.47 1.8-.49c4.413-1.16 8.863-2.16 13.35-3a187.76 187.76 0 0 1 25.35-2.92c1.12 0 2.23-.09 3.35-.12 2.13 0 4.26 0 6.38.09 4.26.14 8.507.423 12.74.85a188.58 188.58 0 0 1 26.93 4.8c9.21 2.32 19.45-6.94 20.11-15.86z"/>
        <path fill="#E9F4FF" d="M172.72 79.59c-.4-13.12-9.39-20.46-21.59-22.2-47.78-6.81-96.58 1.79-140 22.38-10.42 4.92-14.27 20.32-8.32 29.85 6.66 10.66 18.75 13.53 29.85 8.28 2.66-1.26 5.35-2.46 8-3.66l1.83-.77c.7-.27 1.4-.55 2.11-.81a217.34 217.34 0 0 1 15.67-5.28 225.34 225.34 0 0 1 34.12-7.27c2.56-.23 5.12-.5 7.68-.69 5.14-.373 10.283-.57 15.43-.59a228.8 228.8 0 0 1 33 2.35c11.41 1.63 22.55-10.8 22.22-21.59z"/>
        <path fill="#E9F4FF" d="M160.8 42c-.36-11.58-8.29-18.06-19.06-19.6-42.19-6-85.27 1.6-123.64 19.77-9.16 4.34-12.57 17.94-7.31 26.35 5.88 9.41 16.55 12 26.35 7.31 2.35-1.11 4.72-2.17 7.09-3.23l1.62-.68 1.86-.72c4.547-1.72 9.16-3.273 13.84-4.66a199.37 199.37 0 0 1 26.59-5.91c1.18-.18 2.36-.34 3.55-.5 2.26-.21 4.51-.45 6.78-.61 4.53-.33 9.08-.5 13.62-.52 9.74-.01 19.47.68 29.11 2.07 10.05 1.44 19.89-9.53 19.6-19.07z"/>
        <path fill="#E9F4FF" d="M150.05 23.62c.73-9.86-5.42-16.07-14.42-18.34C100.37-3.59 63.13-1 28.94 11c-8.17 2.86-12.27 14.1-8.56 21.71 4.15 8.51 13 11.62 21.71 8.56 2.09-.74 4.2-1.42 6.3-2.11l1.44-.43 1.64-.44c4-1.06 8.053-1.967 12.16-2.72a170.72 170.72 0 0 1 26.15-2.74c1.94 0 3.87 0 5.81.09 3.88.12 7.747.38 11.6.78a170 170 0 0 1 24.52 4.37c8.4 2.09 17.74-6.34 18.34-14.45z"/>
        <path fill="#5FAFFF" d="M151.79 91.92v-.07c-.02.15-.01.09 0 .07z" opacity=".28"/>
        <rect width="112.98" height="64.5" x="29.87" y="12.72" fill="#D4EBFF" rx=".75"/>
        <path fill="#FFF" d="M142.67 14.73v62.48H32.02V14.73z"/>
        <path fill="#3779ED" fill-rule="nonzero" d="M142.11 77.46H30.62a1 1 0 0 1-1-1v-63a1 1 0 0 1 1-1h111.49a1 1 0 0 1 1 1v63a1 1 0 0 1-1 1zM30.62 13a.5.5 0 0 0-.5.49v63a.5.5 0 0 0 .5.49h111.49a.5.5 0 0 0 .5-.49v-63a.5.5 0 0 0-.5-.49H30.62z"/>
        <path fill="#3779ED" fill-rule="nonzero" d="M72.82 71.3v-.5h2v.5h-2zm-2 0h-2v-.5h2v.5zm-4 0h-2v-.5h2v.5zm-4 0h-2v-.5h2v.5zm-4 0h-2v-.5h2v.5zm-4 0h-2v-.5h2v.5zm-4 0h-2v-.5h2v.5zm-4 0h-2v-.5h2v.5zm-4 0h-2v-.5h2v.5zm-4.08 0a3 3 0 0 1-1.82-1.16l.4-.3c.36.51.9.867 1.51 1l-.09.46zm38.39-.75l-.34-.36a2.52 2.52 0 0 0 .78-1.61h.5a3 3 0 0 1-1.2 1.92l.26.05zM36.58 68h-.5v-2h.5v2zm41.24-1.51h-.5v-2h.5v2zM36.58 64h-.5v-2h.5v2zm41.24-1.51h-.5v-2h.5v2zM36.58 60h-.5v-2h.5v2zm41.24-1.51h-.5v-2h.5v2zm-41.24-2.56h-.5v-2h.5v2zm41.24-1.51h-.5v-2h.5v2zM36.58 51.9h-.5v-2h.5v2zm41.24-1.51h-.5v-2h.5v2zm-41.24-2.53h-.5v-2h.5v2zm41.24-1.51h-.5v-2h.5v2zm-41.24-2.52h-.5v-2h.5v2zm41.24-1.51h-.5v-2h.5v2zm-41.24-2.53h-.5v-2h.5v2zm41.24-1.51h-.5v-2h.5v2zm-41.24-2.52h-.5v-2h.5v2zm41.24-1.51h-.5v-2h.5v2zm-41.24-2.53h-.5v-1.78a2.35 2.35 0 0 1 0-.26l.5.05a1.48 1.48 0 0 0 0 .21v1.78zm41.24-1.51h-.5v-.27a2.48 2.48 0 0 0-.49-1.48l.4-.3a3 3 0 0 1 .59 1.78v.27zm-40.44-2.09l-.38-.37a3 3 0 0 1 2-.75v.5a2.51 2.51 0 0 0-1.62.62zm37.93-.61a2.59 2.59 0 0 0-.47-.05h-1.5V27h1.5c.188 0 .376.02.56.06l-.09.45zm-4-.05h-2V27h2v.46zm-4 0h-2V27h2v.46zm-4 0h-2V27h2v.46zm-4 0h-2V27h2v.46zm-4 0h-2V27h2v.46zm-4 0h-2V27h2v.46zm-4 0h-2V27h2v.46zm-4 0h-2V27h2v.46zM131 71.3v-.5h2v.5h-2zm-2 0h-2v-.5h2v.5zm-4 0h-2v-.5h2v.5zm-4 0h-2v-.5h2v.5zm-4 0h-2v-.5h2v.5zm-4 0h-2v-.5h2v.5zm-4 0h-2v-.5h2v.5zm-4 0h-2v-.5h2v.5zm-4 0h-2v-.5h2v.5zm-4.08 0a3 3 0 0 1-1.82-1.16l.4-.3c.36.51.9.867 1.51 1l-.09.46zm38.08-.8l-.34-.36a2.49 2.49 0 0 0 .78-1.61h.5a2.92 2.92 0 0 1-.94 1.97zM94.73 68h-.5v-2h.5v2zM136 66.53h-.5v-2h.5v2zM94.73 64h-.5v-2h.5v2zM136 62.5h-.5v-2h.5v2zM94.73 60h-.5v-2h.5v2zM136 58.46h-.5v-2h.5v2zm-41.27-2.53h-.5v-2h.5v2zM136 54.42h-.5v-2h.5v2zM94.73 51.9h-.5v-2h.5v2zM136 50.39h-.5v-2h.5v2zm-41.27-2.53h-.5v-2h.5v2zM136 46.35h-.5v-2h.5v2zm-41.27-2.52h-.5v-2h.5v2zM136 42.32h-.5v-2h.5v2zm-41.27-2.53h-.5v-2h.5v2zM136 38.28h-.5v-2h.5v2zm-41.27-2.52h-.5v-2h.5v2zM136 34.25h-.5v-2h.5v2zm-41.27-2.53h-.5v-1.78-.26l.5.05v1.99zM136 30.21h-.5v-.27a2.46 2.46 0 0 0-.49-1.48l.4-.3a3 3 0 0 1 .59 1.78v.27zm-40.47-2.09l-.34-.37a3 3 0 0 1 2-.79v.5a2.52 2.52 0 0 0-1.66.66zm37.93-.61a2.42 2.42 0 0 0-.47-.05h-1.5V27H133c.192 0 .383.02.57.06l-.11.45zm-4-.05h-2V27h2v.46zm-4 0h-2V27h2v.46zm-4 0h-2V27h2v.46zm-4 0h-2V27h2v.46zm-4 0h-2V27h2v.46zm-4 0h-2V27h2v.46zm-4 0h-2V27h2v.46zm-4 0h-2V27h2v.46z"/>
        <path fill="#D4EBFF" d="M100.65 33.68h28.89v4.54h-28.89zM100.65 44.23h28.89v1h-28.89zM100.65 50.92h28.89v1h-28.89zM100.65 57.61h28.89v1h-28.89zM100.65 64.31h28.89v1h-28.89z"/>
        <rect width="4.18" height="30.32" x="41.66" y="34.68" fill="#D4EBFF" rx=".31"/>
        <rect width="4.18" height="19.15" x="50.46" y="45.86" fill="#D4EBFF" rx=".31"/>
        <rect width="4.18" height="12.19" x="68.05" y="52.81" fill="#D4EBFF" rx=".31"/>
        <rect width="4.18" height="24.39" x="59.25" y="40.62" fill="#D4EBFF" rx=".31"/>
        <path fill="#3779ED" d="M61.62 60.35a.4.4 0 0 0-.4-.41H55a.4.4 0 0 0-.29.69l1.9 1.91a14.48 14.48 0 0 0-1.85.92L52 65l-.69.4-.65.45-1.31.92a47.2 47.2 0 0 0-5.07 4.06c-.82.73-1.56 1.55-2.34 2.33-.39.4-.78.79-1.16 1.2l-1.07 1.29a56.8 56.8 0 0 0-7.49 11.43c-.52 1-1 2.11-1.48 3.17s-.9 2.18-1.3 3.3c-.4 1.12-.8 2.26-1.14 3.44-.18.58-.33 1.2-.49 1.81-.08.3-.16.62-.23 1l-.1.51a6.44 6.44 0 0 0-.11.66l15.58 1.14v-.39a5.09 5.09 0 0 1 0-.58v-1.27c0-.87.06-1.77.12-2.67.06-.9.19-1.81.29-2.72.1-.91.28-1.82.46-2.73A46.89 46.89 0 0 1 47.07 81l.58-1.3c.21-.42.44-.83.67-1.25.46-.82.88-1.7 1.39-2.5A43.26 43.26 0 0 1 53 71.3l.91-1.14.45-.57.51-.52 2-2.09a21.55 21.55 0 0 1 2.15-1.92l1.85 1.84a.4.4 0 0 0 .69-.28l.06-6.27zM151.81 93.55v-.37-.66c0-.42-.07-.82-.11-1.21-.09-.79-.2-1.54-.32-2.28a52.12 52.12 0 0 0-.9-4.31 54.76 54.76 0 0 0-2.71-8 52.56 52.56 0 0 0-8.42-13.59 51.57 51.57 0 0 0-11.15-9.69 58.87 58.87 0 0 0-12.31-6l.94-2.11a.38.38 0 0 0-.39-.56l-7.1 1.54a.41.41 0 0 0-.25.57L112.3 54a.34.34 0 0 0 .64 0l1-2.08a57.38 57.38 0 0 1 9.8 8.27 46.1 46.1 0 0 1 7.31 10.19 41.74 41.74 0 0 1 4 11.51 41 41 0 0 1 .64 5.88v2.83c0 .46-.04.9-.12 1.32 0 .21-.05.41-.08.59s0 .17 0 .24l16.42 1.35c-.09-.31-.1-.41-.1-.55z" opacity=".29"/>
        <path fill="#D4EBFF" d="M44.64 74.9a.76.76 0 0 1-.11-.34.82.82 0 0 1 .76-.85.8.8 0 0 1 .7.37l3.77 4.53-.34-2.28a1.34 1.34 0 0 1 1-1.5l.42-.08.64 4.17a6.39 6.39 0 0 0 1.19 2.54c.315.314.608.648.88 1a3.22 3.22 0 0 0-3.79.39 3.16 3.16 0 0 0-1 2.07 4.23 4.23 0 0 0-1.36-1l-.4-.24a4.28 4.28 0 0 1-1.38-1l-2.49-2.53s-.73-.67-.24-1.25a1 1 0 0 1 .77-.39l-1-1.08a.79.79 0 0 1-.3-.59.78.78 0 0 1 .76-.83.77.77 0 0 1 .64.28l-.76-.8a.82.82 0 0 1-.26-.55.79.79 0 0 1 .76-.84.74.74 0 0 1 .59.22l.67.75a.91.91 0 0 1-.12-.17z"/>
        <path fill="#3779ED" fill-rule="nonzero" d="M48.76 85.11a.21.21 0 0 1-.19-.11 4.05 4.05 0 0 0-1.26-.89l-.42-.18a4.53 4.53 0 0 1-1.46-1.06l-2.51-2.57a1.13 1.13 0 0 1-.25-1.55 1.61 1.61 0 0 1 .51-.39l-.73-.79a1 1 0 0 1-.34-.71 1 1 0 0 1 .85-1l-.13-.15a1.07 1.07 0 0 1-.33-.69 1 1 0 0 1 .27-.74 1 1 0 0 1 .71-.34 1 1 0 0 1 .71.25.13.13 0 0 1 .06 0l.11.12a1 1 0 0 1 .94-.79 1 1 0 0 1 .89.46l3.25 3.9-.22-1.49a1.58 1.58 0 0 1 1.22-1.75l.41-.08a.24.24 0 0 1 .17 0 .22.22 0 0 1 .1.15l.64 4.18a6.37 6.37 0 0 0 1.15 2.44l.16.16c.256.248.497.512.72.79a.22.22 0 0 1-.29.33A3 3 0 0 0 49 84.9a.22.22 0 0 1-.17.2l-.07.01zm-5.17-6.39A.81.81 0 0 0 43 79c-.35.41.22.94.22.94l2.49 2.53a4.15 4.15 0 0 0 1.32 1l.42.19c.42.186.807.435 1.15.74a3.44 3.44 0 0 1 4.17-2.55 2.55 2.55 0 0 1-.21-.23A6.64 6.64 0 0 1 51.3 79l-.61-4h-.18a1.12 1.12 0 0 0-.87 1.25l.36 2.32a.23.23 0 0 1-.13.24.23.23 0 0 1-.27-.06l-3.77-4.53a.61.61 0 0 0-.51-.28.58.58 0 0 0-.56.61.49.49 0 0 0 .08.23l.08.12a.2.2 0 0 1 0 .24.27.27 0 0 1-.21.13.26.26 0 0 1-.17-.07l-.63-.71a.58.58 0 0 0-.83 0 .53.53 0 0 0-.15.41.63.63 0 0 0 .19.41l.76.79a.23.23 0 0 1-.18.38.21.21 0 0 1-.16-.08.54.54 0 0 0-.45-.2.56.56 0 0 0-.56.6.55.55 0 0 0 .22.42.13.13 0 0 1 .06.07l1 1a.21.21 0 0 1 0 .25.22.22 0 0 1-.22.13v.05z"/>
        <path fill="#FFF" d="M44.75 75.06l3.01 3.46"/>
        <path fill="#3779ED" d="M47.76 78.74a.25.25 0 0 1-.17-.08l-3-3.46a.22.22 0 0 1 0-.31.23.23 0 0 1 .32 0l3 3.46a.23.23 0 0 1 0 .32.27.27 0 0 1-.15.07z"/>
        <path fill="#FFF" d="M43.71 76.28l2.85 3.2"/>
        <path fill="#3779ED" d="M46.56 79.7a.2.2 0 0 1-.16-.07l-2.86-3.2a.23.23 0 0 1 .34-.3l2.85 3.2a.23.23 0 0 1 0 .32.27.27 0 0 1-.17.05z"/>
        <path fill="#FFF" d="M43.53 78.41l1.89 2.13"/>
        <path fill="#3779ED" d="M45.42 80.77a.21.21 0 0 1-.16-.08l-1.9-2.13a.22.22 0 0 1 0-.31.21.21 0 0 1 .31 0l1.9 2.12a.23.23 0 0 1 0 .32.2.2 0 0 1-.15.08z"/>
        <path fill="#D4EBFF" d="M129.38 51.42a.81.81 0 0 0 0-.35.78.78 0 0 0-.9-.63.75.75 0 0 0-.58.5l-2.57 5.11-.18-2.23a1.29 1.29 0 0 0-1.31-1.18h-.41l.31 4.08a6 6 0 0 1-.57 2.66 12.53 12.53 0 0 0-.62 1.1 3.14 3.14 0 0 1 3.67-.46 3.09 3.09 0 0 1 1.44 1.73.32.32 0 0 1 0-.06 4 4 0 0 1 1.07-1.21l.35-.27a4.22 4.22 0 0 0 1.13-1.21l1.79-3s.54-.79-.05-1.23a1 1 0 0 0-.81-.21l.71-1.23a.72.72 0 0 0 .16-.62.77.77 0 0 0-.9-.62.72.72 0 0 0-.54.41l.53-.9a.84.84 0 0 0 .13-.58.78.78 0 0 0-1.42-.29l-.48.85a.89.89 0 0 0 .05-.16z"/>
        <path fill="#3779ED" fill-rule="nonzero" d="M127.68 62a.23.23 0 0 1-.2-.15 2.85 2.85 0 0 0-1.34-1.61 2.89 2.89 0 0 0-3.41.43.23.23 0 0 1-.28 0 .22.22 0 0 1-.07-.26 9.82 9.82 0 0 1 .5-.91l.12-.19a6 6 0 0 0 .55-2.56l-.31-4.09a.21.21 0 0 1 .21-.23h.43a1.52 1.52 0 0 1 1.52 1.38l.11 1.46 2.22-4.42a1 1 0 0 1 .74-.61 1 1 0 0 1 1.07.53l.07-.13a.12.12 0 0 1 .05-.05 1 1 0 0 1 .61-.39 1 1 0 0 1 1.16.8 1.07 1.07 0 0 1-.15.74l-.1.15a1 1 0 0 1 1.05.82 1 1 0 0 1-.17.74l-.52.91c.206.04.4.126.57.25a1.12 1.12 0 0 1 .1 1.54l-1.79 2.92a4.19 4.19 0 0 1-1.14 1.31l-.35.27a3.69 3.69 0 0 0-1 1.12.21.21 0 0 1-.25.23zm-3-2.56a3.37 3.37 0 0 1 1.62.42 3.32 3.32 0 0 1 1.37 1.43c.257-.38.57-.717.93-1l.35-.26c.41-.326.75-.73 1-1.19l1.79-2.94s.43-.64 0-1a.76.76 0 0 0-.62-.17.23.23 0 0 1-.23-.08.2.2 0 0 1 0-.24l.69-1.19a.09.09 0 0 1 0-.07.53.53 0 0 0 .12-.45.56.56 0 0 0-.23-.36.58.58 0 0 0-.42-.09.54.54 0 0 0-.39.3.28.28 0 0 1-.13.11.32.32 0 0 1-.17 0 .26.26 0 0 1-.11-.14.25.25 0 0 1 0-.17l.54-.9a.58.58 0 0 0 .09-.44.49.49 0 0 0-.23-.35.52.52 0 0 0-.42-.09.54.54 0 0 0-.37.24l-.45.8a.2.2 0 0 1-.13.11.23.23 0 0 1-.23-.08.22.22 0 0 1 0-.23.38.38 0 0 0 .06-.13.49.49 0 0 0 0-.24.56.56 0 0 0-.66-.45.53.53 0 0 0-.41.36l-2.58 5.13a.21.21 0 0 1-.23.11.22.22 0 0 1-.18-.19l-.05-2.16a1.08 1.08 0 0 0-1.07-1h-.2l.29 3.86a6.46 6.46 0 0 1-.58 2.76l-.15.25v.05a3.32 3.32 0 0 1 1.43-.34l-.04.02z"/>
        <path fill="#FFF" d="M129.3 51.59l-2.08 3.94"/>
        <path fill="#3779ED" d="M127.22 55.74h-.1a.22.22 0 0 1-.09-.3l2.08-3.93a.22.22 0 0 1 .39.2l-2.09 3.94a.21.21 0 0 1-.19.09z"/>
        <path fill="#FFF" d="M130.56 52.52l-2 3.65"/>
        <path fill="#3779ED" d="M128.57 56.39a.2.2 0 0 1-.11 0 .21.21 0 0 1-.08-.29l2-3.66a.21.21 0 0 1 .29-.08.21.21 0 0 1 .08.29l-2 3.65a.21.21 0 0 1-.18.09z"/>
        <path fill="#FFF" d="M131.2 54.5l-1.33 2.43"/>
        <path fill="#3779ED" d="M129.87 57.14h-.1a.24.24 0 0 1-.09-.3l1.32-2.45a.21.21 0 0 1 .29-.08.2.2 0 0 1 .09.29l-1.32 2.4a.21.21 0 0 1-.19.14z"/>
        <path fill="#BDDCFF" d="M61.77 90.03l-.37 2.24"/>
        <path fill="#0D5C7C" d="M61.235 92.24l.374-2.23.986.166-.373 2.229z"/>
        <path fill="#8FB9F5" d="M79.43 46.22c1.34 1.53 1.72 6.19 5 6.34h2.38c3.29-.15 3.67-4.81 5-6.34a3.15 3.15 0 0 1 1.73-1.14c.1-.95.38-4 .38-4a10 10 0 0 0-.09-2.08 6.79 6.79 0 0 0-3.93-5.18 10 10 0 0 0-9.74.68 7.32 7.32 0 0 0-2.84 6.62s.29 3 .39 4a3.14 3.14 0 0 1 1.72 1.1z"/>
        <path fill="#D4EBFF" d="M77.33 41.17a7 7 0 0 1 2.83-5.55A10.12 10.12 0 0 1 84.87 34a9.94 9.94 0 0 1 5 .93 6.82 6.82 0 0 1 3.93 5.19c.051.331.081.665.09 1a10 10 0 0 0-.06-2.12 6.79 6.79 0 0 0-3.93-5.18 10 10 0 0 0-9.74.68 7.32 7.32 0 0 0-2.84 6.62l.01.05z"/>
        <path fill="#3779ED" fill-rule="nonzero" d="M84.43 52.81c-2.4-.11-3.35-2.44-4.11-4.32a8.07 8.07 0 0 0-1.08-2.11 3 3 0 0 0-1.58-1.06h-.18v-.19c-.1-.94-.39-4-.39-4a7.53 7.53 0 0 1 3-6.86 10.23 10.23 0 0 1 10-.7A7.09 7.09 0 0 1 94.07 39a10.3 10.3 0 0 1 .1 2.18s-.28 3-.38 4v.19h-.18A3.07 3.07 0 0 0 92 46.38a8.4 8.4 0 0 0-1.07 2.11c-.76 1.88-1.71 4.21-4.11 4.32h-2.39zm-6.49-7.94a3.62 3.62 0 0 1 1.68 1.19 8.33 8.33 0 0 1 1.16 2.24c.75 1.84 1.59 3.91 3.66 4h2.37c2.06-.1 2.91-2.17 3.66-4a8.63 8.63 0 0 1 1.15-2.24 3.64 3.64 0 0 1 1.69-1.19c.11-1.09.37-3.77.37-3.77.034-.688 0-1.378-.1-2.06a6.59 6.59 0 0 0-3.78-5 9.68 9.68 0 0 0-9.49.66 7 7 0 0 0-2.74 6.41s.26 2.67.37 3.76z"/>
        <path fill="#D4EBFF" d="M94.24 45.58a.91.91 0 0 0-.72-.33 1.91 1.91 0 0 0-.33.06 3.12 3.12 0 0 0-.42.18 3.26 3.26 0 0 0-1 .73c-1.33 1.53-1.71 6.19-5 6.34h-2.34c-3.28-.15-3.66-4.81-5-6.34-.48-.56-1.78-1.47-2.42-.63a2 2 0 0 0-.16 1.58c.4 2 .58 2.65 2 2.84 0 0 .37 3.2 1.53 4.37a6.54 6.54 0 0 0 1.84 1.41v4.15h7.49v-4.5a8.13 8.13 0 0 0 1.23-1.06c1.13-1.17 1.49-4.38 1.49-4.38 1.39-.19 1.57-.84 2-2.84a2 2 0 0 0-.19-1.58z"/>
        <path fill="#3779ED" fill-rule="nonzero" d="M89.92 60.19h-8V56a6.88 6.88 0 0 1-1.76-1.4c-1.06-1-1.48-3.6-1.58-4.32-1.38-.25-1.6-1.09-2-3a2.28 2.28 0 0 1 .21-1.79c.2-.265.509-.423.84-.43a3 3 0 0 1 1.93 1.06 8.33 8.33 0 0 1 1.16 2.24c.75 1.84 1.59 3.91 3.66 4h2.37c2.06-.1 2.91-2.17 3.66-4a8.63 8.63 0 0 1 1.15-2.24 3.45 3.45 0 0 1 1-.79 2.25 2.25 0 0 1 .45-.19 1.42 1.42 0 0 1 .41-.08 1.11 1.11 0 0 1 .9.43 2.2 2.2 0 0 1 .21 1.79c-.38 1.92-.6 2.76-2 3-.1.72-.52 3.27-1.58 4.32-.361.361-.75.696-1.16 1l.13 4.59zm-7.49-.5h7v-4.38l.11-.07a9 9 0 0 0 1.2-1c1.08-1.13 1.44-4.24 1.44-4.24v-.2h.19c1.21-.16 1.36-.68 1.75-2.64a1.78 1.78 0 0 0-.12-1.42.65.65 0 0 0-.51-.24.75.75 0 0 0-.26 0 3.2 3.2 0 0 0-.39.16 3.15 3.15 0 0 0-.88.67 8.4 8.4 0 0 0-1.07 2.11c-.76 1.88-1.71 4.21-4.11 4.32h-2.35c-2.4-.11-3.35-2.44-4.11-4.32a8.07 8.07 0 0 0-1.08-2.11 2.41 2.41 0 0 0-1.57-.88.55.55 0 0 0-.46.24 1.83 1.83 0 0 0-.12 1.38c.4 2 .55 2.48 1.76 2.64h.19v.2s.37 3.13 1.46 4.22a6.29 6.29 0 0 0 1.77 1.37l.14.06.02 4.13z"/>
        <path fill="#FFF" d="M70.11 78.47s4.7 13.18 2.35 26.11c-.74 4.07-1.43 8.06-2 11.77h31.45c-.61-3.71-1.31-7.7-2-11.77-2.35-12.93 2.35-26.11 2.35-26.11s11.74-.67 16.64-2.22c4.38-1.38 8.44-12.2 9.26-14.49a1 1 0 0 0-.06-.83 3.54 3.54 0 0 0-4.52-1.87.94.94 0 0 0-.54.44c-.92 1.49-5.17 8.19-8.64 9.39-.15 0-6-.91-8.07-2.34-1.23-.84-2.35-1.74-3.67-2.47a25.42 25.42 0 0 0-5-2.11c-.76-.23-3-.5-3.13-.59l-3.23-3H80.92l-1.87 2.93s-8.74 2.3-11 6.75C66.18 71.83 62 85.34 61 89.5c-.11.44-5.64-5.55-7.93-7.85a2.18 2.18 0 0 0-2-.58A3.61 3.61 0 0 0 48.24 84a2.06 2.06 0 0 0 .38 1.66c2.22 3.07 11.08 15.12 13.56 15.63 0 0 3.1 2.27 6.36-7.07l3.27-9.34"/>
        <path fill="#3779ED" fill-rule="nonzero" d="M101.86 116.6H70.41a.28.28 0 0 1-.19-.09.23.23 0 0 1 0-.21c.59-3.57 1.28-7.53 2-11.77a52.1 52.1 0 0 0-.48-18.74l-3 8.46c-1.88 5.39-3.76 7-5 7.37a2 2 0 0 1-1.7-.15c-2.52-.63-10.39-11.18-13.67-15.71A2.34 2.34 0 0 1 48 83.9a3.83 3.83 0 0 1 3-3.07 2.41 2.41 0 0 1 2.27.64c.66.67 1.59 1.63 2.58 2.66 1.72 1.79 4.23 4.41 5 5 1.08-4.3 5.14-17.44 7-21.15 2.18-4.3 10-6.58 11.06-6.86l1.82-2.84a.25.25 0 0 1 .21-.12h10.24a.2.2 0 0 1 .16.07l3.2 2.92c.14 0 .6.11 1 .17.72.12 1.61.26 2 .39a26.4 26.4 0 0 1 5.07 2.13 25.58 25.58 0 0 1 2.58 1.7c.36.26.73.53 1.11.78 2 1.37 7.52 2.3 7.9 2.3 3.36-1.17 7.63-7.93 8.45-9.27a1.31 1.31 0 0 1 .68-.55 3.78 3.78 0 0 1 4.82 2c.16.31.186.671.07 1-1.1 3.08-5 13.25-9.41 14.64-4.56 1.44-15.08 2.13-16.54 2.22-.51 1.52-4.46 13.86-2.28 25.82.77 4.24 1.46 8.2 2 11.77a.26.26 0 0 1-.06.21.28.28 0 0 1-.07.14zm-31.15-.5h30.86c-.58-3.5-1.26-7.36-2-11.48-2.33-12.85 2.32-26.11 2.37-26.24a.24.24 0 0 1 .22-.16c.11 0 11.76-.69 16.58-2.21 4.27-1.35 8.32-12.18 9.09-14.33a.73.73 0 0 0 0-.63 3.31 3.31 0 0 0-4.22-1.76.8.8 0 0 0-.41.34c-1.18 1.92-5.29 8.29-8.77 9.5-.3.09-6.22-1-8.29-2.37L105 66a22.76 22.76 0 0 0-7.5-3.76 18.13 18.13 0 0 0-2-.37c-1.08-.17-1.15-.19-1.24-.27l-3.16-2.89h-10l-1.8 2.81a.19.19 0 0 1-.14.11c-.09 0-8.67 2.32-10.84 6.63-1.95 3.74-6.14 17.34-7.1 21.3a.29.29 0 0 1-.19.2c-.33.09-.93-.42-5.59-5.28-1-1-1.91-2-2.57-2.65a1.92 1.92 0 0 0-1.8-.52A3.38 3.38 0 0 0 48.48 84a1.84 1.84 0 0 0 .34 1.46c5.25 7.25 11.53 15.14 13.41 15.52a.25.25 0 0 1 .09 0c.405.234.894.27 1.33.1 1.13-.36 2.85-1.87 4.66-7l3.23-9.25a55.17 55.17 0 0 0-1.66-6.28.25.25 0 0 1 .47-.17A55.59 55.59 0 0 1 72 84.71a.32.32 0 0 1 0 .14 53.55 53.55 0 0 1 .65 19.77c-.65 4.12-1.36 7.98-1.94 11.48z"/>
        <path fill="#FFF" d="M79.05 61.36s3.46.73 15.36 0"/>
        <path fill="#3779ED" d="M85.1 61.93a35 35 0 0 1-6.1-.33.24.24 0 0 1-.19-.29.24.24 0 0 1 .29-.19s3.6.7 15.29 0a.24.24 0 0 1 .27.23.26.26 0 0 1-.24.27c-3.99.23-7.04.31-9.32.31zM73.26 98.7a.47.47 0 0 0-.17 0c0 1.28-.16 2.57-.32 3.87a.33.33 0 0 0 .14 0c2.78.24 16 1.26 26.45.08a.3.3 0 0 0 .16 0 42.404 42.404 0 0 1-.33-3.93.33.33 0 0 0-.14 0c-9.99 1.11-23.05.2-25.79-.02z"/>
        <path fill="#FFF" d="M73.26 98.12c2.78.21 15.8 1.13 25.79 0a.51.51 0 0 1 .56.48l.2 3a.51.51 0 0 1-.45.55c-10.46 1.18-23.67.16-26.45-.08a.51.51 0 0 1-.46-.57c.08-.69.21-1.92.26-2.88a.5.5 0 0 1 .55-.5z"/>
        <path fill="#3779ED" fill-rule="nonzero" d="M87.9 102.94c-7.07 0-13.33-.5-15-.64a.75.75 0 0 1-.52-.28.7.7 0 0 1-.17-.57c.06-.52.21-1.85.26-2.87a.74.74 0 0 1 .82-.71C75.82 98.06 89 99 99 97.88a.78.78 0 0 1 .57.17.77.77 0 0 1 .27.54l.2 3a.77.77 0 0 1-.67.82 106.4 106.4 0 0 1-11.47.53zm-14.68-4.58a.29.29 0 0 0-.18.07.25.25 0 0 0-.08.18c-.06 1-.2 2.37-.26 2.89a.26.26 0 0 0 0 .2.27.27 0 0 0 .18.1c2.57.22 15.91 1.26 26.4.08a.26.26 0 0 0 .23-.28l-.2-3a.24.24 0 0 0-.09-.18.22.22 0 0 0-.19-.06c-10 1.12-23.29.18-25.84 0h.03z"/>
        <path fill="#D4EBFF" d="M87.91 59.41l-.64 1.19c-.17.33-.39.65-.54 1a21.8 21.8 0 0 0-.91 2.1 18.89 18.89 0 0 0-.91 9.3 20.24 20.24 0 0 0 1.33 4.79 36.87 36.87 0 0 0 2.37 4.58 37.86 37.86 0 0 1-3.53-3.92 22.74 22.74 0 0 1-2.73-4.7A23.09 23.09 0 0 1 80.6 62.6c.1-.96 8.22-4.95 7.31-3.19z"/>
        <path fill="#8FB9F5" d="M90.9 42.88l.1 2.61a30.25 30.25 0 0 1 0 3.16 24.75 24.75 0 0 1-1.14 6.16 25.73 25.73 0 0 1-2.5 5.51l-.72 1.13c-.2.32-.44.63-.61 1a18.6 18.6 0 0 0-1.06 2 19 19 0 0 0-1.56 9.22 21.36 21.36 0 0 0 1 4.88 38.2 38.2 0 0 0 2 4.73 38.26 38.26 0 0 1-3.25-4.16 22.72 22.72 0 0 1-2.39-4.87 23 23 0 0 1-1-11.25c.17-1 .37-1.91.64-2.86s.66-2 .83-2.6a18.08 18.08 0 0 0 .72-4.3 16.56 16.56 0 0 0-.34-4.13c-.15-.68-.33-1.28-.55-2l-.76-2.49a5.373 5.373 0 0 1 10.29-3.1c.155.44.255.896.3 1.36z"/>
        <path fill="#D4EBFF" d="M84 39.58a5.37 5.37 0 0 1 6.69 3.59c.127.44.2.893.22 1.35l.1 2.61V45.49l-.1-2.61a5.76 5.76 0 0 0-.22-1.35 5.37 5.37 0 0 0-10.46 2.37A5.36 5.36 0 0 1 84 39.58zM79.85 64.63c.165-.96.378-1.912.64-2.85.25-.91.66-2 .83-2.61a18.08 18.08 0 0 0 .72-4.3v-1.48a18.42 18.42 0 0 1-.71 4.14c-.17.62-.58 1.7-.83 2.6-.25.9-.5 1.87-.65 2.87a23.52 23.52 0 0 0-.28 4.5c.038-.961.132-1.92.28-2.87zM83.42 73.66v-.82c-.05.82-.05 1.64 0 2.46a21.36 21.36 0 0 0 1 4.88c.133.38.273.76.42 1.14.53.67 1.08 1.31 1.63 2a38.2 38.2 0 0 1-2-4.73 21.36 21.36 0 0 1-1.05-4.93z"/>
        <path fill="#3779ED" fill-rule="nonzero" d="M85.54 38.21a4.9 4.9 0 0 1 4.66 3.46c.113.401.18.814.2 1.23l.1 2.61a29.62 29.62 0 0 1 0 3.12 24.76 24.76 0 0 1-1.11 6A25.9 25.9 0 0 1 87 60.05l-.73 1.14-.22.33a7.18 7.18 0 0 0-.39.63c-.45.74-.81 1.5-1.09 2.08a19.42 19.42 0 0 0-1.59 9.47 21 21 0 0 0 1 5c.13.42.29.84.45 1.25-.26-.36-.52-.72-.76-1.1a22.27 22.27 0 0 1-3.29-15.76c.2-1.1.4-2 .63-2.81.14-.48.32-1 .48-1.5.16-.5.27-.82.35-1.1a18.49 18.49 0 0 0 .74-4.42 17.24 17.24 0 0 0-.39-4.26c-.15-.69-.34-1.3-.56-2l-.76-2.5a4.88 4.88 0 0 1 4.67-6.27v-.02zm0-.48a5.38 5.38 0 0 0-5.15 6.92l.76 2.49c.22.7.4 1.3.55 2 .27 1.346.37 2.72.3 4.09a18.08 18.08 0 0 1-.72 4.3c-.17.62-.58 1.7-.83 2.6-.25.9-.45 1.87-.6 2.87a23 23 0 0 0 1 11.25 22.72 22.72 0 0 0 2.39 4.87 38.26 38.26 0 0 0 3.25 4.16 38.2 38.2 0 0 1-2-4.73 21.36 21.36 0 0 1-1-4.88A19 19 0 0 1 85 64.44a18.6 18.6 0 0 1 1.06-2c.17-.33.41-.64.61-1l.72-1.13a25.73 25.73 0 0 0 2.5-5.51A24.75 24.75 0 0 0 91 48.65a30.25 30.25 0 0 0 0-3.16l-.1-2.61a5.76 5.76 0 0 0-.22-1.35 5.37 5.37 0 0 0-5.14-3.82v.02z"/>
        <path d="M11 20.78h157.31v90.56H11z"/>
        <path fill="#FFF" d="M17.63 116.35h142.46"/>
        <path fill="#3779ED" d="M160.09 116.61H17.63a.27.27 0 1 1 0-.53h142.46a.27.27 0 0 1 0 .53z"/>
        <path fill="#FFF" d="M114.4 114.44l-6.72-11.74v-12h-5.78v12l-6.81 11.69a1.28 1.28 0 0 0 1.1 1.92l17.09.07a1.28 1.28 0 0 0 1.12-1.94z"/>
        <path fill="#3779ED" fill-rule="nonzero" d="M113.29 116.6l-17.09-.07a1.53 1.53 0 0 1-1.31-2.3l6.77-11.63V90.42h6.28v12.18l6.68 11.68a1.5 1.5 0 0 1 0 1.53 1.53 1.53 0 0 1-1.33.79zM102.2 90.92v11.88l-6.81 11.69a1 1 0 0 0 0 1 1 1 0 0 0 .89.52l17.1.07a1 1 0 0 0 .89-.51 1 1 0 0 0 0-1l-6.75-11.8V90.95l-5.32-.03z"/>
        <path fill="#D4EBFF" d="M96.19 116.28l17.09.07a1.28 1.28 0 0 0 1.12-1.91l-3.73-6.51h-.07a8 8 0 0 0-6.27 0 5.93 5.93 0 0 1-5.45 0l-3.74 6.41a1.28 1.28 0 0 0 1.05 1.94z"/>
        <path fill="#FFF" d="M98.88 108.59a5.9 5.9 0 0 0 5.45 0 8.07 8.07 0 0 1 6.27 0h.07l3.73 6.51a2 2 0 0 1 .12.31 1.28 1.28 0 0 0-.12-1l-3.73-6.51h-.07a8 8 0 0 0-6.27 0 5.93 5.93 0 0 1-5.45 0l-.28.48.28.21zM95.09 115l3.46-6.58-3.46 5.93a1.27 1.27 0 0 0-.13 1c.027-.122.07-.24.13-.35z"/>
        <path fill="#8FB9F5" d="M114.4 114.44l-6.72-11.74v-12h-5.78v.3h4.25v10.19a6.7 6.7 0 0 0 .89 3.38l5.82 10.17c.29.503.2 1.139-.22 1.54h.63a1.28 1.28 0 0 0 1.13-1.84z"/>
        <path fill="#3779ED" fill-rule="nonzero" d="M113.29 116.6l-17.09-.07a1.51 1.51 0 0 1-1.32-.77 1.52 1.52 0 0 1 0-1.53l3.81-6.53h.32a5.68 5.68 0 0 0 5.21 0 8.19 8.19 0 0 1 6.4 0l.17-.05 3.82 6.68a1.5 1.5 0 0 1 0 1.53 1.53 1.53 0 0 1-1.32.74zm-17.1-.6l17.1.07a1 1 0 0 0 .89-.51 1 1 0 0 0 0-1l-3.68-6.39a7.85 7.85 0 0 0-6.06 0 6.18 6.18 0 0 1-5.5.09l-3.63 6.23a1 1 0 0 0 0 1 1 1 0 0 0 .89.52l-.01-.01z"/>
        <path fill="#3779ED" fill-rule="nonzero" d="M113.29 116.6l-17.09-.07a1.53 1.53 0 0 1-1.31-2.3l6.77-11.63V90.42h6.28v12.18l6.68 11.68a1.5 1.5 0 0 1 0 1.53 1.53 1.53 0 0 1-1.33.79zM102.2 90.92v11.88l-6.81 11.69a1 1 0 0 0 0 1 1 1 0 0 0 .89.52l17.1.07a1 1 0 0 0 .89-.51 1 1 0 0 0 0-1l-6.75-11.8V90.95l-5.32-.03z"/>
        <rect width="7.45" height="1.78" x="101.58" y="90.09" fill="#FFF" rx=".89"/>
        <path fill="#3779ED" fill-rule="nonzero" d="M107.78 92.55h-5.67a1.14 1.14 0 0 1-1.11-1.17 1.14 1.14 0 0 1 1.14-1.13h5.67c.63 0 1.14.51 1.14 1.14a1.15 1.15 0 0 1-1.17 1.16zm-5.67-1.8a.63.63 0 0 0-.45 1.08.6.6 0 0 0 .45.19h5.67a.64.64 0 0 0 0-1.28h-5.67v.01z"/>
        <rect width="7.45" height="1.78" x="101.58" y="90.09" fill="#FFF" rx=".89"/>
        <path fill="#3779ED" fill-rule="nonzero" d="M107.78 92.55h-5.67a1.14 1.14 0 0 1-1.11-1.17 1.14 1.14 0 0 1 1.14-1.13h5.67c.63 0 1.14.51 1.14 1.14a1.15 1.15 0 0 1-1.17 1.16zm-5.67-1.8a.63.63 0 0 0-.45 1.08.6.6 0 0 0 .45.19h5.67a.64.64 0 0 0 0-1.28h-5.67v.01z"/>
        <path fill="#8FB9F5" d="M107.78 92.3a.89.89 0 0 0 0-1.78h-1.2a2.4 2.4 0 0 1 0 1.77h1.23l-.03.01z"/>
        <path fill="#3779ED" fill-rule="nonzero" d="M107.78 92.55h-5.67a1.14 1.14 0 0 1-1.11-1.17 1.14 1.14 0 0 1 1.14-1.13h5.67c.63 0 1.14.51 1.14 1.14a1.15 1.15 0 0 1-1.17 1.16zm-5.67-1.8a.63.63 0 0 0-.45 1.08.6.6 0 0 0 .45.19h5.67a.64.64 0 0 0 0-1.28h-5.67v.01z"/>
        <path fill="#3779ED" d="M101.935 94.748l.004-1 2.65.01-.004 1zM101.913 97.586l.004-1 2.65.01-.004 1zM101.904 100.41l.004-1 2.65.01-.004 1z"/>
        <path fill="#FFF" d="M126.09 111.21h26.66a3.06 3.06 0 0 1 3.06 3.06v2.07H123v-2.07a3.06 3.06 0 0 1 3.09-3.06z"/>
        <path fill="#3779ED" fill-rule="nonzero" d="M155.81 116.6H123a.26.26 0 0 1-.25-.25v-2.08a3.32 3.32 0 0 1 3.31-3.31h26.66a3.31 3.31 0 0 1 3.31 3.31v2.08a.25.25 0 0 1-.22.25zm-32.53-.5h32.28v-1.83a2.81 2.81 0 0 0-2.81-2.81h-26.66a2.81 2.81 0 0 0-2.81 2.81v1.83z"/>
        <path fill="#D4EBFF" d="M154.28 111.64a3 3 0 0 1 .34 1.37v.73a1.34 1.34 0 0 1-1.35 1.34H123v1.27h32.78v-2.08a3 3 0 0 0-1.5-2.63z"/>
        <path fill="#3779ED" fill-rule="nonzero" d="M155.81 116.6H123a.26.26 0 0 1-.25-.25v-2.08a3.32 3.32 0 0 1 3.31-3.31h26.66a3.31 3.31 0 0 1 3.31 3.31v2.08a.25.25 0 0 1-.22.25zm-32.53-.5h32.28v-1.83a2.81 2.81 0 0 0-2.81-2.81h-26.66a2.81 2.81 0 0 0-2.81 2.81v1.83z"/>
        <path fill="#FFF" d="M146.86 79.38H151a1.8 1.8 0 0 1 1.8 1.8v30h-7.7v-30a1.8 1.8 0 0 1 1.76-1.8z"/>
        <path fill="#D4EBFF" d="M151 79.38h-1.23a1.8 1.8 0 0 1 1.8 1.8v30h1.22v-30a1.8 1.8 0 0 0-1.79-1.8z"/>
        <path fill="#3779ED" fill-rule="nonzero" d="M152.75 111.46h-7.69a.25.25 0 0 1-.25-.25v-30a2.05 2.05 0 0 1 2.05-2.05H151a2.05 2.05 0 0 1 2 2.05v30a.25.25 0 0 1-.25.25zm-7.44-.5h7.19V81.18a1.55 1.55 0 0 0-1.5-1.55h-4.1a1.55 1.55 0 0 0-1.55 1.55l-.04 29.78z"/>
        <path fill="#FFF" d="M126 90.41v3.89h9.72s9.33.3 9.33 9.41v-13.3H126z"/>
        <path fill="#3779ED" fill-rule="nonzero" d="M145.06 104a.25.25 0 0 1-.25-.25c0-8.77-8.72-9.15-9.09-9.16H126a.25.25 0 0 1-.25-.25v-3.93a.25.25 0 0 1 .25-.25h19a.25.25 0 0 1 .25.25v13.3a.25.25 0 0 1-.19.29zm-18.8-9.91h9.47c.09 0 7.12.31 9.08 6.29v-9.72h-18.55v3.43z"/>
        <path fill="#FFF" d="M124.77 84.56h12.13v4.88h-12.13z"/>
        <path fill="#3779ED" fill-rule="nonzero" d="M136.9 89.68h-12.13a.25.25 0 0 1-.25-.25v-4.87a.25.25 0 0 1 .25-.25h12.13a.25.25 0 0 1 .25.25v4.87a.25.25 0 0 1-.25.25zm-11.9-.5h11.63v-4.37H125v4.37z"/>
        <rect width="4.62" height="2.25" x="115.613" y="71.264" fill="#D4EBFF" rx=".32" transform="rotate(-45 117.923 72.389)"/>
        <path fill="#FFF" d="M116 73.71l2.55-2.55a.32.32 0 0 1 .46 0l.88.88.25-.26a.31.31 0 0 0 0-.45L119 70.19a.34.34 0 0 0-.46 0L115.72 73a.32.32 0 0 0 0 .46l.28.25z"/>
        <rect width="4.62" height="3.11" x="119.737" y="74.971" fill="#D4EBFF" rx=".35" transform="rotate(-45 122.047 76.526)"/>
        <path fill="#FFF" d="M119.84 77.58l2.49-2.49a.37.37 0 0 1 .5 0l1.41 1.42.29-.28a.36.36 0 0 0 0-.49l-1.7-1.7a.35.35 0 0 0-.5 0l-2.77 2.76a.35.35 0 0 0 0 .5l.28.28z"/>
        <path fill="#FFF" d="M117.525 74.366l2.376-2.376 2.235 2.234-2.376 2.376z"/>
        <path fill="#3779ED" fill-rule="nonzero" d="M119.75 76.86a.28.28 0 0 1-.17-.07l-2.24-2.24a.26.26 0 0 1 0-.35l2.38-2.38a.25.25 0 0 1 .36 0l2.23 2.23a.25.25 0 0 1 0 .36l-2.38 2.38a.29.29 0 0 1-.18.07zm-1.88-2.49l1.88 1.89 2-2-1.88-1.88-2 1.99z"/>
        <path fill="#D4EBFF" d="M122.19 80.865l4.483-4.483 3.076 3.076-4.483 4.483z"/>
        <path fill="#FFF" d="M121.954 78.811l2.376-2.376 1.117 1.118-2.376 2.375z"/>
        <path fill="#3779ED" fill-rule="nonzero" d="M123.07 80.17a.24.24 0 0 1-.18-.07l-1.11-1.1a.24.24 0 0 1 0-.35l2.37-2.38a.25.25 0 0 1 .36 0l1.11 1.12a.24.24 0 0 1 0 .35l-2.37 2.38a.26.26 0 0 1-.18.05zm-.76-1.36l.76.76 2-2-.76-.76-2 2z"/>
        <path fill="#FFF" d="M126.21 78.09a.63.63 0 0 1 .91 0l2 2 .62-.62-3.07-3.08-4.48 4.48.62.63 3.4-3.41z"/>
        <path fill="#3779ED" fill-rule="nonzero" d="M117.08 74.93a.57.57 0 0 1-.41-.16l-1.13-1.14a.58.58 0 0 1 0-.81l2.81-2.8a.56.56 0 0 1 .81 0l1.13 1.13a.58.58 0 0 1 0 .81l-2.81 2.81a.57.57 0 0 1-.4.16zm1.67-4.58l-2.81 2.81a.07.07 0 0 0 0 .1l1.06 1.15a.07.07 0 0 0 .1 0l2.81-2.8a.08.08 0 0 0 0-.11l-1.14-1.13s0-.02-.02-.02zM121.51 79.35a.65.65 0 0 1-.43-.17l-1.7-1.7a.63.63 0 0 1-.17-.43.59.59 0 0 1 .17-.42l2.77-2.77a.61.61 0 0 1 .85 0l1.7 1.7a.57.57 0 0 1 .18.43.56.56 0 0 1-.18.42l-2.76 2.77a.65.65 0 0 1-.43.17zm1.07-5.16h-.08L119.74 77a.09.09 0 0 0 0 .07.07.07 0 0 0 0 .07l1.7 1.7a.1.1 0 0 0 .14 0l2.77-2.76a.17.17 0 0 0 0-.07.16.16 0 0 0 0-.08l-1.7-1.7-.07-.04zM125.26 84.19a.23.23 0 0 1-.17-.07L122 81a.24.24 0 0 1 0-.35l4.48-4.48a.24.24 0 0 1 .35 0l3.08 3.07a.25.25 0 0 1 0 .36l-4.48 4.48a.24.24 0 0 1-.17.11zm-2.72-3.33l2.72 2.73 4.13-4.13-2.72-2.72-4.13 4.12z"/>
        <path fill="#FFF" d="M124.77 84.56l5.81-5.94a.78.78 0 0 1 1.13 0l5.19 5.91-12.13.03z"/>
        <path fill="#3779ED" fill-rule="nonzero" d="M136.9 84.81h-12.13a.26.26 0 0 1-.23-.16.25.25 0 0 1 0-.27l5.81-5.93a1 1 0 0 1 .76-.31 1 1 0 0 1 .74.35l5.19 5.9a.26.26 0 0 1 0 .27.25.25 0 0 1-.14.15zm-11.53-.5h11l-4.83-5.49a.51.51 0 0 0-.37-.18.46.46 0 0 0-.39.16l-5.41 5.51z"/>
        <circle cx="148.91" cy="98.99" r="3.06" fill="#D4EBFF"/>
        <path fill="#3779ED" fill-rule="nonzero" d="M148.91 102.41a3.35 3.35 0 1 1 0-6.7 3.35 3.35 0 0 1 0 6.7zm0-6.12a2.77 2.77 0 1 0-.02 5.54 2.77 2.77 0 0 0 .02-5.54z"/>
        <circle cx="127.69" cy="86.99" r="1.27" fill="#3779ED"/>
        <path fill="#3779ED" fill-rule="nonzero" d="M127.69 88.51a1.52 1.52 0 1 1-.02-3.04 1.52 1.52 0 0 1 .02 3.04zm0-2.53a1 1 0 1 0 1 1 1 1 0 0 0-1-.98v-.02z"/>
        <path fill="#FFF" d="M140.46 108.75h1.32a.57.57 0 0 1 .57.57v1.89h-2.46v-1.89a.57.57 0 0 1 .57-.57z"/>
        <path fill="#3779ED" fill-rule="nonzero" d="M142.36 111.46h-2.47a.25.25 0 0 1-.25-.25v-1.89a.82.82 0 0 1 .82-.82h1.33a.82.82 0 0 1 .82.82v1.89a.25.25 0 0 1-.25.25zm-2.22-.5h2v-1.64a.32.32 0 0 0-.32-.32h-1.33a.32.32 0 0 0-.32.32l-.03 1.64z"/>
        <path fill="#8FB9F5" d="M127.01 89.43h8.52v1h-8.52z"/>
        <path fill="#3779ED" fill-rule="nonzero" d="M135.78 90.66h-9v-1.48h9v1.48zm-8.52-.5h8v-.48h-8v.48z"/>
        <path fill="#8FB9F5" d="M127.69 94.3h6.88v1.63h-6.88z"/>
        <path fill="#3779ED" fill-rule="nonzero" d="M134.82 96.18h-7.38v-2.13h7.38v2.13zm-6.88-.5h6.38v-1.13h-6.38v1.13z"/>
        <path fill="#8FB9F5" d="M128.65 95.93h4.96v1.63h-4.96z"/>
        <path fill="#3779ED" fill-rule="nonzero" d="M133.86 97.81h-5.46v-2.13h5.46v2.13zm-5-.5h4.46v-1.13h-4.42l-.04 1.13z"/>
        <path fill="#D4EBFF" d="M126.42 108.75v2.46h11.47v-2.46z"/>
        <path fill="#3779ED" fill-rule="nonzero" d="M138.14 111.46h-12v-3h12v3zm-11.47-.5h11v-2h-11v2z"/>
        <path fill="#FFF" d="M60.98 89.5l-.69 3.02"/>
        <path fill="#3779ED" d="M60.29 92.77h-.06a.26.26 0 0 1-.19-.3l.7-3a.27.27 0 0 1 .3-.19.26.26 0 0 1 .19.3l-.7 3a.24.24 0 0 1-.24.19z"/>
        <path fill="#8FB9F5" d="M59.77 106.33a1.84 1.84 0 0 1-.83-1.54v-.3h-2.5v.3a1.85 1.85 0 0 1-.84 1.54 1.81 1.81 0 0 0-.83 1.53v8.3h5.83v-8.3a1.81 1.81 0 0 0-.83-1.53z"/>
        <path fill="#3779ED" fill-rule="nonzero" d="M60.85 116.41h-6.33v-8.55a2 2 0 0 1 .95-1.74 1.59 1.59 0 0 0 .72-1.33v-.55h3v.55c0 .536.271 1.036.72 1.33a2.06 2.06 0 0 1 .94 1.74v8.55zm-5.83-.5h5.33v-8a1.56 1.56 0 0 0-.72-1.32 2.09 2.09 0 0 1-.94-1.75v-.05h-2v.05a2.09 2.09 0 0 1-.95 1.75 1.56 1.56 0 0 0-.72 1.32v8z"/>
        <path fill="#FFF" d="M57.29 109.53h3.31v4.38h-3.31a.4.4 0 0 1-.4-.4v-3.58c0-.22.18-.4.4-.4z"/>
        <path fill="#3779ED" fill-rule="nonzero" d="M60.85 116.41h-6.33v-8.55a2 2 0 0 1 .95-1.74 1.59 1.59 0 0 0 .72-1.33v-.55h3v.55c0 .536.271 1.036.72 1.33a2.06 2.06 0 0 1 .94 1.74v8.55zm-5.83-.5h5.33v-8a1.56 1.56 0 0 0-.72-1.32 2.09 2.09 0 0 1-.94-1.75v-.05h-2v.05a2.09 2.09 0 0 1-.95 1.75 1.56 1.56 0 0 0-.72 1.32v8z"/>
        <rect width="3.73" height="2.2" x="55.82" y="102.61" fill="#FFF" rx=".29"/>
        <path fill="#3779ED" fill-rule="nonzero" d="M59.26 105.06h-3.15a.54.54 0 0 1-.54-.54v-1.61c0-.3.24-.545.54-.55h3.15c.3.005.54.25.54.55v1.61a.54.54 0 0 1-.54.54zm-3.15-2.2v1.66h3.19v-1.61l-3.19-.05z"/>
        <path fill="#8FB9F5" d="M150.21 98.55c-.19-.21-.39-.33-.45-.28-.06.05.08.22.14.4a1.47 1.47 0 0 1-1 1.85 1.52 1.52 0 0 1-1-.06c-.19-.09-.29-.23-.36-.17s0 .23.16.44a1.662 1.662 0 0 0 2.51-2.18z"/>
        <path fill="#8FB9F5" d="M147.74 99.5c.18.22.39.34.45.29.06-.05-.08-.23-.14-.41a1.47 1.47 0 0 1 2-1.78c.19.08.29.23.36.17s0-.23-.16-.45a1.662 1.662 0 1 0-2.51 2.18z"/>
        <ellipse cx="148.97" cy="98.97" fill="#8FB9F5" rx="1" ry="1"/>
        <path fill="#3779ED" d="M37.18 18.53h.06l.06.06 2 2.58V18.52h.7v3.87h-.37a.26.26 0 0 1-.14 0 .26.26 0 0 1-.11-.1l-2-2.57V22.42h-.63v-3.9h.46l-.03.01z"/>
        <path fill="#3779ED" fill-rule="nonzero" d="M41.85 19.6a1.21 1.21 0 0 1 .48.09 1 1 0 0 1 .62.63c.063.17.094.35.09.53A.41.41 0 0 1 43 21a.19.19 0 0 1 0 .08h-1.81a1 1 0 0 0 .23.62.72.72 0 0 0 .53.2c.09.011.18.011.27 0l.2-.08.16-.09a.27.27 0 0 1 .12 0h.07L43 22a1.36 1.36 0 0 1-.53.35 1.57 1.57 0 0 1-.31.08h-.29a1.4 1.4 0 0 1-.54-.1 1.07 1.07 0 0 1-.42-.28 1.25 1.25 0 0 1-.29-.46 1.74 1.74 0 0 1-.1-.63c-.001-.18.03-.36.09-.53a1.22 1.22 0 0 1 .67-.72 1.42 1.42 0 0 1 .57-.11zm0 .48a.58.58 0 0 0-.45.16.79.79 0 0 0-.21.46h1.24a.67.67 0 0 0 0-.24.63.63 0 0 0-.1-.2.43.43 0 0 0-.19-.13.49.49 0 0 0-.27-.05h-.02z"/>
        <path fill="#3779ED" d="M43.24 19.65h.53a.21.21 0 0 1 .12 0 .13.13 0 0 1 .07.09l.39 1.46a2 2 0 0 1 0 .24v.23l.06-.23c0-.08 0-.16.07-.24l.52-1.44a.16.16 0 0 1 .06-.08.15.15 0 0 1 .11 0h.29a.16.16 0 0 1 .12 0 .13.13 0 0 1 .07.08l.45 1.5.06.22c.02.072.037.146.05.22v-.23c0-.08 0-.15.05-.24l.41-1.46a.15.15 0 0 1 .06-.09.27.27 0 0 1 .12 0h.5l-.87 2.74H46c-.06 0-.1-.04-.12-.12l-.5-1.58v-.32a.75.75 0 0 1 0 .16.94.94 0 0 1 0 .16l-.5 1.58a.14.14 0 0 1-.14.12h-.51l-.99-2.77zM50.46 20.18a.17.17 0 0 1-.06.06h-.07a.19.19 0 0 1-.1 0l-.13-.06-.17-.06a.66.66 0 0 0-.21 0 .48.48 0 0 0-.31.09.23.23 0 0 0-.11.21.2.2 0 0 0 .06.15.37.37 0 0 0 .15.11 1 1 0 0 0 .21.08l.25.08.24.1a1 1 0 0 1 .22.13.8.8 0 0 1 .15.21.58.58 0 0 1 .06.28 1 1 0 0 1-.07.36.78.78 0 0 1-.21.29 1 1 0 0 1-.35.19 1.33 1.33 0 0 1-.47.07c-.09.01-.18.01-.27 0a1.11 1.11 0 0 1-.26-.07l-.23-.1a1.33 1.33 0 0 1-.19-.14l.15-.25a.46.46 0 0 1 .07-.07h.11a.23.23 0 0 1 .11 0l.13.08.17.07a.57.57 0 0 0 .24 0 .66.66 0 0 0 .21 0l.14-.07a.44.44 0 0 0 .08-.11.5.5 0 0 0 0-.12.21.21 0 0 0-.06-.16.45.45 0 0 0-.15-.11 1 1 0 0 0-.21-.08l-.25-.08-.25-.1a1.64 1.64 0 0 1-.22-.14.71.71 0 0 1-.21-.53.88.88 0 0 1 .07-.32.73.73 0 0 1 .2-.27 1.07 1.07 0 0 1 .32-.18 1.52 1.52 0 0 1 .45-.07c.175 0 .348.034.51.1.146.051.279.133.39.24l-.13.19zM52.07 22.43a.74.74 0 0 1-.55-.2.78.78 0 0 1-.19-.56v-1.53h-.28a.12.12 0 0 1-.09 0 .14.14 0 0 1 0-.11v-.26l.44-.07.14-.75a.09.09 0 0 1 0-.08.15.15 0 0 1 .1 0H52v.86h.72v.47H52v1.49a.32.32 0 0 0 .06.2.24.24 0 0 0 .17.07H52.56v.05l.19.32a.88.88 0 0 1-.33.18 1.21 1.21 0 0 1-.35-.08zM53.84 19.65v1.74a.62.62 0 0 0 .11.39.45.45 0 0 0 .35.13.68.68 0 0 0 .32-.07 1.12 1.12 0 0 0 .29-.21v-2h.66v2.74h-.41a.17.17 0 0 1-.17-.12v-.22l-.18.15a.76.76 0 0 1-.19.12.83.83 0 0 1-.22.08 1.09 1.09 0 0 1-.26 0 .93.93 0 0 1-.39-.08.7.7 0 0 1-.29-.21.88.88 0 0 1-.18-.33 1.42 1.42 0 0 1-.06-.42v-1.69h.62z"/>
        <path fill="#3779ED" fill-rule="nonzero" d="M58.2 22.39a.16.16 0 0 1-.17-.12L58 22c-.06.07-.12.12-.18.18a1.37 1.37 0 0 1-.2.13.85.85 0 0 1-.24.09 1.09 1.09 0 0 1-.26 0 .8.8 0 0 1-.41-.1.86.86 0 0 1-.33-.27 1.29 1.29 0 0 1-.21-.44 2.6 2.6 0 0 1-.07-.6 2 2 0 0 1 .08-.56c.05-.154.125-.3.22-.43a1.52 1.52 0 0 1 .37-.3 1.13 1.13 0 0 1 .49-.1.94.94 0 0 1 .39.07.84.84 0 0 1 .29.2v-1.45h.66v4l-.4-.03zm-.88-.49a.65.65 0 0 0 .35-.08 1 1 0 0 0 .27-.24v-1.23a.64.64 0 0 0-.24-.2.88.88 0 0 0-.29 0 .76.76 0 0 0-.27 0 .55.55 0 0 0-.2.17.86.86 0 0 0-.13.29 1.7 1.7 0 0 0-.05.41 2.18 2.18 0 0 0 0 .41.84.84 0 0 0 .11.27.39.39 0 0 0 .18.16.59.59 0 0 0 .27.04z"/>
        <path fill="#3779ED" d="M60.29 23.14a.31.31 0 0 1-.08.11.26.26 0 0 1-.14 0h-.49l.51-1.1-1.09-2.5h.58a.21.21 0 0 1 .12 0l.07.09.58 1.42c.02.046.036.092.05.14a.83.83 0 0 1 0 .15.88.88 0 0 1 0-.15 1.21 1.21 0 0 1 .05-.14l.55-1.42a.16.16 0 0 1 .07-.09.2.2 0 0 1 .11 0h.53l-1.42 3.49z"/>
        <rect width="4.15" height="2.2" x="25" y="95.26" fill="#FFF" rx=".29"/>
        <path fill="#3779ED" fill-rule="nonzero" d="M28.86 97.7h-3.57a.54.54 0 0 1-.54-.54v-1.61a.54.54 0 0 1 .54-.54h3.57a.54.54 0 0 1 .54.54v1.61a.54.54 0 0 1-.54.54zm-3.57-2.19v1.65h3.61v-1.61l-3.61-.04z"/>
        <path fill="#FFF" d="M25.61 97.52h2.94V113a1.47 1.47 0 1 1-2.94 0V97.52z"/>
        <path fill="#D4EBFF" d="M25.61 102.33h2.98v1.38h-2.98z"/>
        <path fill="#D4EBFF" d="M27.63 97.52V113a1.47 1.47 0 0 1-1 1.39c.147.053.303.08.46.08a1.46 1.46 0 0 0 1.45-1.47V97.52h-.91z"/>
        <path fill="#3779ED" fill-rule="nonzero" d="M27.07 114.67a1.72 1.72 0 0 1-1.71-1.67V97.27h3.43V113a1.72 1.72 0 0 1-1.72 1.67zm-1.21-16.9V113a1.22 1.22 0 1 0 2.43 0V97.77h-2.43z"/>
        <rect width="4.15" height="2.2" x="25" y="95.26" fill="#FFF" rx=".29"/>
        <path fill="#3779ED" fill-rule="nonzero" d="M28.86 97.7h-3.57a.54.54 0 0 1-.54-.54v-1.61a.54.54 0 0 1 .54-.54h3.57a.54.54 0 0 1 .54.54v1.61a.54.54 0 0 1-.54.54zm-3.57-2.19v1.65h3.61v-1.61l-3.61-.04z"/>
        <path fill="#D4EBFF" d="M28.86 95.26H28v2.19h.84c.16 0 .29-.13.29-.29v-1.61a.29.29 0 0 0-.27-.29z"/>
        <path fill="#3779ED" fill-rule="nonzero" d="M28.86 97.7h-3.57a.54.54 0 0 1-.54-.54v-1.61a.54.54 0 0 1 .54-.54h3.57a.54.54 0 0 1 .54.54v1.61a.54.54 0 0 1-.54.54zm-3.57-2.19v1.65h3.61v-1.61l-3.61-.04z"/>
        <path fill="#FFF" d="M34.26 97.52h2.94V113a1.47 1.47 0 1 1-2.94 0V97.52z"/>
        <path fill="#D4EBFF" d="M34.26 102.33h2.98v1.38h-2.98z"/>
        <path fill="#D4EBFF" d="M36.28 97.52V113a1.46 1.46 0 0 1-1 1.39c.148.052.303.079.46.08A1.47 1.47 0 0 0 37.2 113V97.52h-.92z"/>
        <path fill="#3779ED" fill-rule="nonzero" d="M35.73 114.67A1.72 1.72 0 0 1 34 113V97.27h3.44V113a1.72 1.72 0 0 1-1.71 1.67zm-1.22-16.9V113a1.245 1.245 0 1 0 2.49 0V97.77h-2.49z"/>
        <rect width="4.15" height="2.2" x="33.65" y="95.26" fill="#FFF" rx=".29"/>
        <path fill="#3779ED" fill-rule="nonzero" d="M37.51 97.7H34a.55.55 0 0 1-.55-.54v-1.61A.55.55 0 0 1 34 95h3.56c.3 0 .545.24.55.54v1.61a.55.55 0 0 1-.6.55zM34 95.51l-.05 1.65H37.61v-1.61L34 95.51z"/>
        <path fill="#D4EBFF" d="M37.51 95.26h-.84v2.19h.84a.29.29 0 0 0 .3-.29v-1.61a.29.29 0 0 0-.3-.29z"/>
        <path fill="#3779ED" fill-rule="nonzero" d="M37.51 97.7H34a.55.55 0 0 1-.55-.54v-1.61A.55.55 0 0 1 34 95h3.56c.3 0 .545.24.55.54v1.61a.55.55 0 0 1-.6.55zM34 95.51l-.05 1.65H37.61v-1.61L34 95.51z"/>
        <path fill="#FFF" d="M42.92 97.52h2.94V113a1.47 1.47 0 1 1-2.94 0V97.52z"/>
        <path fill="#D4EBFF" d="M42.92 102.33h2.98v1.38h-2.98z"/>
        <path fill="#D4EBFF" d="M44.94 97.52V113a1.47 1.47 0 0 1-1 1.39c.144.052.297.08.45.08a1.47 1.47 0 0 0 1.46-1.47V97.52h-.91z"/>
        <path fill="#3779ED" fill-rule="nonzero" d="M44.38 114.67a1.72 1.72 0 0 1-1.71-1.67V97.27h3.43V113a1.72 1.72 0 0 1-1.72 1.67zm-1.21-16.9V113a1.22 1.22 0 1 0 2.43 0V97.77h-2.43z"/>
        <rect width="4.15" height="2.2" x="42.31" y="95.26" fill="#FFF" rx=".29"/>
        <path fill="#3779ED" fill-rule="nonzero" d="M46.17 97.7H42.6a.54.54 0 0 1-.54-.54v-1.61a.54.54 0 0 1 .54-.55h3.57a.54.54 0 0 1 .54.54v1.61a.54.54 0 0 1-.54.55zm-3.57-2.19v1.65h3.61v-1.61l-3.61-.04z"/>
        <path fill="#D4EBFF" d="M46.17 95.26h-.84v2.19h.84c.16 0 .29-.13.29-.29v-1.61a.29.29 0 0 0-.29-.29z"/>
        <path fill="#3779ED" fill-rule="nonzero" d="M46.17 97.7H42.6a.54.54 0 0 1-.54-.54v-1.61a.54.54 0 0 1 .54-.55h3.57a.54.54 0 0 1 .54.54v1.61a.54.54 0 0 1-.54.55zm-3.57-2.19v1.65h3.61v-1.61l-3.61-.04z"/>
        <path fill="#3779ED" d="M23.6 114.17h26.08v1H23.6z"/>
        <path fill="#FFF" d="M50.73 100.68h-1v-.75a.84.84 0 0 0-.84-.83.83.83 0 0 0-.83.83v.75H23.6v-.75a.83.83 0 0 0-1.66 0v.75h-1.21v1.65h1.21v14h1.66v-14H48v14h1.67v-14h1l.06-1.65z"/>
        <path fill="#3779ED" fill-rule="nonzero" d="M49.94 116.6h-2.17v-14H23.85v14h-2.16v-14h-1.21v-2.15h1.21v-.5a1.08 1.08 0 0 1 2.16 0v.5h23.92v-.5a1.09 1.09 0 0 1 2.17 0v.5h1v2.15h-1v14zm-1.67-.5h1.17v-14h1v-1.15h-1v-1a.59.59 0 0 0-1.17 0v1H23.35v-1a.58.58 0 1 0-1.16 0v1H21v1.15h1.21v14h1.16v-14h24.9v14z"/>
    </g>
</svg>
