<svg xmlns="http://www.w3.org/2000/svg" xmlns:xlink="http://www.w3.org/1999/xlink" width="16" height="16" viewBox="0 0 16 16">
    <defs>
        <path id="a" d="M7.85 1L15 14H1L7.84 1h.01zm-.01-1A1 1 0 0 0 7 .53l-6.84 13A1 1 0 0 0 0 14a1 1 0 0 0 1 1h14a1 1 0 0 0 .88-1.47L8.73.53A1 1 0 0 0 7.85 0h-.01zM7 5h2v5H7V5zm0 6h2v2H7v-2z"/>
    </defs>
    <g fill="#000" fill-rule="evenodd">
        <mask id="b" fill="#fff">
            <use xlink:href="#a"/>
        </mask>
        <use fill-rule="nonzero" xlink:href="#a"/>
        <g mask="url(#b)">
            <path d="M0 0h16v16H0z"/>
        </g>
    </g>
</svg>
