<svg xmlns="http://www.w3.org/2000/svg" xmlns:xlink="http://www.w3.org/1999/xlink" viewBox="6.71 37.725 98.579 36.549">
    <defs>
        <path d="M7.71 38.73h17.76v7.32h-9.81v5.51h9.47v7.32h-9.47v12.39H7.71V38.73zm55.74 0h8.29v32.54h-8.29V38.73zm-16.27 0L21.22 71.27h10.76l17.66-22.14v22.14h8.29V38.73H47.18zM101.56 50c0-3.57-1.52-6.83-4-8.93-2.2-1.81-4.49-2.34-10.01-2.34H77.26v7.32h10.97c3.42 0 5.32 1.56 5.32 4.43 0 2.88-1.95 4.59-5.41 4.59H77.26v5.66h7.95l7.56 10.54h9.52L93.46 60.2c5.4-3.22 8.1-6.62 8.1-10.2z"
              id="a"/>
    </defs>
    <use xlink:href="#a"/>
    <use xlink:href="#a" fill-opacity="0" stroke="#000" stroke-opacity="0"/>
</svg>