<svg xmlns="http://www.w3.org/2000/svg" width="16" height="16" viewBox="0 0 16 16">
    <g fill="none" fill-rule="evenodd">
        <path fill="#1B2C4B" fill-rule="nonzero" d="M9.16 14.56a6.37 6.37 0 0 0 3.65-2 .24.24 0 0 0-.13 0h-.13a.93.93 0 0 0-.25-.08.22.22 0 0 0 0-.14l-.09-.09-.13-.09L12 12h-.12l-.08-.06h-.08a.1.1 0 0 0-.08 0H11.42a1.34 1.34 0 0 0-.37-.23.45.45 0 0 1-.12-.06l-.11-.07a.16.16 0 0 0-.1 0 .26.26 0 0 0-.18.23V11.77a.19.19 0 0 0 0-.2.09.09 0 0 0-.11 0h-.13l-.12.09-.09.07-.09.06-.09.08a.44.44 0 0 0-.06.12v.12a.22.22 0 0 0-.12-.07c-.07 0-.1 0-.1-.06a3.72 3.72 0 0 1 0 .37c0 .17 0 .3.05.39a.48.48 0 0 1-.12.5.78.78 0 0 0-.3.42c0 .147.04.237.12.27a.51.51 0 0 1-.08.21.35.35 0 0 0-.07.23.53.53 0 0 0-.07.19zm1.69-9.13l-.09.1c-.09.1-.1.09-.15.09h.05a.37.37 0 0 0 .05-.11v-.07a.65.65 0 0 1 .29-.21c.176-.057.357-.1.54-.13a.52.52 0 0 1 .53.12s0-.06.1-.14L12.3 5a.49.49 0 0 1 .16 0c.08 0 .13 0 .15-.08v-.23a.18.18 0 0 1-.19-.07.36.36 0 0 1-.06-.22l-.07.09c-.07.09 0-.08 0-.09h-.12a.12.12 0 0 1-.1 0 .35.35 0 0 1-.15-.07.34.34 0 0 1-.09-.18c.003-.05.003-.1 0-.15 0 0 0-.07-.1-.11a.47.47 0 0 1-.1-.11V3.6a.05.05 0 0 0-.05 0 .15.15 0 0 0-.08 0l-.07.11a.07.07 0 0 0-.06 0h-.1a.19.19 0 0 1-.09 0h-.09c.11 0 .1-.07 0-.11a.26.26 0 0 0-.16 0c.06 0 .09-.07.07-.13a.29.29 0 0 0-.08-.14h.05a.19.19 0 0 0-.09-.09l-.18-.09-.14-.06a.92.92 0 0 0-.35-.1.68.68 0 0 0-.35 0 .14.14 0 0 0 0 .11.41.41 0 0 0 0 .15.79.79 0 0 1 0 .13.22.22 0 0 1-.06.13.19.19 0 0 0-.07.13s.05.1.15.16c.1.06.13.13.1.22s-.08.11-.17.17a.64.64 0 0 0-.16.13.21.21 0 0 0 0 .19.42.42 0 0 0 .11.17h-.12a.18.18 0 0 1-.21-.06A.67.67 0 0 1 9 4.6c-.05-.17-.1-.27-.17-.31-.07-.04-.26 0-.3 0-.04 0-.19-.17-.44-.29a1.18 1.18 0 0 0-.6 0v-.16c0-.1-.11-.14-.2-.12a.4.4 0 0 0 0-.18 1.13 1.13 0 0 0 0-.14.56.56 0 0 1 .13-.24l.07-.09a.94.94 0 0 0 .1-.14v-.07a.63.63 0 0 0 .52-.11 1.36 1.36 0 0 0 .12-.18.71.71 0 0 1 .11-.17c.06-.05.11-.07.14-.06a.29.29 0 0 1 .15.06h.15c.1 0 .15 0 .17-.12a.25.25 0 0 0-.08-.21c.08 0 .09 0 0-.17l-.08-.1a.36.36 0 0 0-.29.06c-.05 0 0 .05 0 .08s0 0-.09.11a.76.76 0 0 1-.18.18h-.16a.74.74 0 0 1-.06-.14c0-.09-.06-.14-.1-.14-.04 0-.11.05-.17.15-.06.1 0-.1-.11-.15a.85.85 0 0 0-.25-.09c.13-.08.1-.17-.08-.28a.8.8 0 0 0-.22-.05.29.29 0 0 0-.2 0 .33.33 0 0 0-.06.12.14.14 0 0 0 .18.12l.11.05h.21c.1.07.13.11.09.14H7.2h-.07c-.01 0 0 .07 0 .14v.15a.74.74 0 0 1-.13.03 1 1 0 0 0-.07-.18c.05.07 0 .09-.26.07h-.49A.22.22 0 0 1 6 2.1a.23.23 0 0 1 0-.2.57.57 0 0 0 0-.12.35.35 0 0 0-.11-.09 5.69 5.69 0 0 0-1 .42A.17.17 0 0 0 5 2.1l.15-.1h.1c.24-.1.38-.12.44-.07v-.06c.1.12.17.2.21.26a.7.7 0 0 0-.31 0c-.14 0-.22.09-.23.13a.33.33 0 0 1 0 .19l-.12-.11a.72.72 0 0 0-.15-.11.3.3 0 0 0-.09-.08h-.2a6.54 6.54 0 0 0-2.45 2.32s.09.08.13.08c.04 0 0 0 0 .1a.53.53 0 0 0 0 .11h.12a.15.15 0 0 1 0 .2c.163.077.317.17.46.28l.22.22c0 .07 0 .14-.11.18l-.09-.09c-.06 0-.09-.06-.1 0a.25.25 0 0 0 0 .19c0 .1.06.14.11.13.05-.01-.08.06-.1.17a2.05 2.05 0 0 0 0 .37c.008.08.008.16 0 .24a.64.64 0 0 0 .16.35c.06.16.13.23.23.21-.1 0 0 .17.2.44a.3.3 0 0 0 .09.1l.12.08.16.1a.52.52 0 0 1 .1.11 1 1 0 0 1 .11.23.51.51 0 0 0 .14.25s0 .11.1.21c.07.06.11.148.11.24 0 .05.07.09.16.14a.38.38 0 0 1 .16.14.22.22 0 0 1 0 .1v.12h.09a1.27 1.27 0 0 0-.25-.65 2.58 2.58 0 0 1-.18-.3.68.68 0 0 1-.06-.16v-.15h.22a.19.19 0 0 0 0 .19.76.76 0 0 0 .12.19L5 8.9l.08.1c.056.062.106.13.15.2.047.1.047.15 0 .15a.33.33 0 0 1 .21.1 1 1 0 0 1 .17.21.6.6 0 0 1 .09.34v.25a.28.28 0 0 0 .09.14.57.57 0 0 0 .13.1l.17.08.13.07.19.11c.072.048.15.088.23.12a.47.47 0 0 0 .16.05H7.1a.35.35 0 0 1 .3.16c.062.084.136.158.22.22a.69.69 0 0 0 .57.11v.08a.89.89 0 0 0 .09.16l.09.15.06.09a.86.86 0 0 0 .19.16.77.77 0 0 1 .18.15.14.14 0 0 0 .13-.2c0 .06 0 .12.07.21s.13.12.19.1c.06-.02.14-.13.14-.33a.36.36 0 0 1-.51-.19v-.06a.59.59 0 0 1 0-.08.32.32 0 0 1 0-.09.11.11 0 0 1 0-.08h.11a.28.28 0 0 0 0-.13v-.13a.36.36 0 0 0-.11-.21l-.13-.16a.15.15 0 0 1-.16.08.18.18 0 0 1-.17-.09v.06a.2.2 0 0 0 0 .07h-.3a1 1 0 0 0 0-.19v-.23l.06-.13a1.09 1.09 0 0 0 .08-.15.33.33 0 0 0 0-.13.1.1 0 0 0 0-.1.34.34 0 0 0-.19 0 .27.27 0 0 0-.27.21v.11a.33.33 0 0 1 0 .12.29.29 0 0 1-.1.07.52.52 0 0 1-.24 0 1 1 0 0 1-.26-.05.72.72 0 0 1-.23-.31.86.86 0 0 1-.1-.38 1.78 1.78 0 0 1 0-.28 1.58 1.58 0 0 0 0-.26.79.79 0 0 0-.06-.25l.1-.1A.57.57 0 0 1 7 8.73v-.06a.61.61 0 0 0 .3 0h.29c.05 0 .18.07.23 0v-.1a.23.23 0 0 1 0-.14c0 .19.14.22.31.1a.41.41 0 0 0 .16.05.49.49 0 0 1 .18 0 .19.19 0 0 1 .07.06h.06a.18.18 0 0 0 .09-.07c.057.076.1.16.13.25a1 1 0 0 0 .19.46.19.19 0 0 0 .12 0V9v-.46c-.11 0-.17-.06-.19-.12a.23.23 0 0 1 0-.2A.9.9 0 0 1 9.2 8h.08l.16-.06a.36.36 0 0 0 .13-.09c.15-.13.2-.25.16-.36a.11.11 0 0 0 .11-.09h-.13c.06 0 .07-.09 0-.17A.2.2 0 0 0 9.77 7a.12.12 0 0 1 .07-.1.14.14 0 0 0 .22 0 .12.12 0 0 0 0-.17.35.35 0 0 1 .22-.11.28.28 0 0 0 .19-.1h.08a.41.41 0 0 0 0-.12.23.23 0 0 1 0-.13.34.34 0 0 1 .16-.09l.14-.06.22-.12a.4.4 0 0 0 .33-.12c.07-.07 0-.14-.07-.2s0-.08 0-.1a.34.34 0 0 0-.15-.06h.12a.18.18 0 0 0 .11 0c.1-.07.07-.13-.08-.17a.58.58 0 0 0-.48.08zM8 0a7.91 7.91 0 0 1 4 1.07A8.12 8.12 0 0 1 14.93 4 7.91 7.91 0 0 1 16 8a7.91 7.91 0 0 1-1.07 4A8.12 8.12 0 0 1 12 14.93 7.91 7.91 0 0 1 8 16a7.91 7.91 0 0 1-4-1.07A8.12 8.12 0 0 1 1.07 12 7.91 7.91 0 0 1 0 8a7.91 7.91 0 0 1 1.07-4A8.12 8.12 0 0 1 4 1.07 7.91 7.91 0 0 1 8 0z"/>
    </g>
</svg>
