<svg xmlns="http://www.w3.org/2000/svg" width="16" height="16" viewBox="0 0 16 16">
    <g fill="none" fill-rule="evenodd">
        <path fill="#1B2C4B" fill-rule="nonzero" d="M14 11.682l-4.9-4.78c.8-1.46.5-3.259-.734-4.396a3.85 3.85 0 0 0-4.549-.474c-1.452.857-2.137 2.554-1.673 4.145.465 1.591 1.964 2.683 3.663 2.668a3.82 3.82 0 0 0 1.836-.476l1.288 1.195-1.447 1.41 1.447 1.408 1.447-1.409.728.71-1.457 1.408 1.457 1.409 2.465-2.38.429-.438zM4.58 6.29a1.659 1.659 0 0 1-.39-1.846 1.737 1.737 0 0 1 1.607-1.05c.705 0 1.34.415 1.607 1.05a1.659 1.659 0 0 1-.39 1.846 1.77 1.77 0 0 1-2.434 0z"/>
    </g>
</svg>
