<svg xmlns="http://www.w3.org/2000/svg" width="16" height="16" viewBox="0 0 16 16">
    <g fill="none" fill-rule="evenodd">
        <path fill="#1B2C4B" fill-rule="nonzero" d="M4 1.07a.5.5 0 0 1 .68.18l1.5 2.6a.5.5 0 1 1-.86.5l-1.5-2.6A.5.5 0 0 1 4 1.07zM1.07 4a.5.5 0 0 1 .68-.18l2.6 1.5a.5.5 0 1 1-.5.86l-2.6-1.5A.5.5 0 0 1 1.07 4zM0 8a.5.5 0 0 1 .5-.5h3a.5.5 0 0 1 0 1h-3A.5.5 0 0 1 0 8zm8 8a.5.5 0 0 1-.5-.5v-3a.5.5 0 1 1 1 0v3a.5.5 0 0 1-.5.5zm4-1.07a.5.5 0 0 1-.68-.18l-1.5-2.6a.5.5 0 1 1 .86-.5l1.5 2.6a.5.5 0 0 1-.18.68zM14.93 12a.5.5 0 0 1-.68.18l-2.6-1.5a.5.5 0 1 1 .5-.86l2.6 1.5a.5.5 0 0 1 .18.68zM16 8a.5.5 0 0 1-.5.5h-3a.5.5 0 1 1 0-1h3a.5.5 0 0 1 .5.5zm-1.07-4a.5.5 0 0 1-.18.68l-2.6 1.5a.5.5 0 1 1-.5-.86l2.6-1.5a.5.5 0 0 1 .68.18zM12 1.07a.5.5 0 0 1 .18.68l-1.5 2.6a.5.5 0 1 1-.86-.5l1.5-2.6a.5.5 0 0 1 .68-.18zM8 0a.5.5 0 0 1 .5.5v3a.5.5 0 0 1-1 0v-3A.5.5 0 0 1 8 0z"/>
    </g>
</svg>
