<svg xmlns="http://www.w3.org/2000/svg" width="16" height="16" viewBox="0 0 16 16">
    <g fill="none" fill-rule="evenodd">
        <path fill="#1B2C4B" fill-rule="nonzero" d="M8.74 1.437l.938.272-.937.272-.281.938-.272-.938-.938-.272.938-.272L8.46.5l.28.937zm5.823 5.822l.937.282-.937.271-.272.938-.272-.938-.938-.271.938-.282.272-.937.272.937zM6.125 2.881l1.8.553-1.8.544-.59 1.8-.553-1.8-1.8-.544 1.8-.553.553-1.79.59 1.79zM2.872 1.437l.938.272-.938.272-.272.938-.225-.975-.937-.272.937-.235L2.647.5l.225.937zm12.384 1.697a.534.534 0 0 1-.168.413L3.313 15.33a.553.553 0 0 1-.413.169.562.562 0 0 1-.412-.169l-1.819-1.81a.562.562 0 0 1-.168-.412.553.553 0 0 1 .168-.422L12.453.912a.534.534 0 0 1 .413-.168.534.534 0 0 1 .403.168l1.819 1.82c.11.103.172.25.168.402zm-4.096 2.69l2.68-2.69-.937-.937-2.728 2.644.985.984z"/>
    </g>
</svg>
