<svg xmlns="http://www.w3.org/2000/svg" viewBox="0 0 24 24">
    <defs>
        <style>.cls-1{fill:#1d1d1b;}.cls-2{fill:none;}</style>
    </defs>
    <g id="Layer_2">
        <g id="Layer_4">
            <path class="cls-1"
                  d="M12,12.61a1.26,1.26,0,0,1-.67-.19L7.59,10a1.23,1.23,0,0,1-.57-1V5.31a1.24,1.24,0,0,1,.62-1.07L11.44,2A1.24,1.24,0,0,1,12.7,2l3.73,2.25A1.27,1.27,0,0,1,17,5.3V9a1.23,1.23,0,0,1-.57,1l-3.76,2.41A1.21,1.21,0,0,1,12,12.61Zm-.41-1.87ZM9,8.53l3,1.94,3-1.92V5.73l-3-1.79L9,5.74Zm6.35-.21h0ZM8.66,6h0Zm3.8-2.25h0Z"/>
            <path class="cls-1"
                  d="M18,22.18a1.26,1.26,0,0,1-.67-.19l-3.76-2.44a1.23,1.23,0,0,1-.57-1V14.87a1.24,1.24,0,0,1,.62-1.07l3.8-2.24a1.24,1.24,0,0,1,1.26,0l3.73,2.25A1.27,1.27,0,0,1,23,14.87v3.66a1.23,1.23,0,0,1-.57,1L18.69,22A1.21,1.21,0,0,1,18,22.18Zm-.41-1.88ZM15,18.1,18,20l3-1.93V15.3l-3-1.79-3,1.8Zm6.35-.21Zm-6.71-2.37h0Zm3.8-2.24h0Z"/>
            <path class="cls-1"
                  d="M6,22.18A1.26,1.26,0,0,1,5.35,22L1.59,19.55a1.23,1.23,0,0,1-.57-1V14.87a1.24,1.24,0,0,1,.62-1.07l3.8-2.24a1.24,1.24,0,0,1,1.26,0l3.73,2.25A1.27,1.27,0,0,1,11,14.87v3.66a1.23,1.23,0,0,1-.57,1L6.69,22A1.21,1.21,0,0,1,6,22.18ZM5.61,20.3ZM3,18.1,6,20l3-1.93V15.3l-3-1.79-3,1.8Zm6.35-.21ZM2.66,15.52h0Zm3.8-2.24h0Z"/>
        </g>
    </g>
</svg>