<svg xmlns="http://www.w3.org/2000/svg" xmlns:xlink="http://www.w3.org/1999/xlink" width="16" height="16" viewBox="0 0 16 16">
    <defs>
        <path id="a" d="M6 14h4c0 1.1-.9 2-2 2s-2-.9-2-2zM9.8 2H6.2v-.3C6.2.7 7 0 8 0s1.8.7 1.8 1.7V2zM8 1c2.3 0 4 1.8 4 4v3.3l2 2.7v2H2v-2l2-2.7V5c0-2.2 1.8-4 4-4zm0 1C6.4 2 5 3.3 5 5V8.6l-.2.3L3 11.3v.7h10v-.7l-1.8-2.4-.2-.3V5c0-1.7-1.3-3-3-3z"/>
    </defs>
    <g fill="none" fill-rule="evenodd">
        <use fill="#1B2C4B" fill-rule="nonzero" xlink:href="#a"/>
    </g>
</svg>
