<svg xmlns="http://www.w3.org/2000/svg" width="16" height="16" viewBox="0 0 16 16">
    <g fill="none" fill-rule="evenodd">
        <path fill="#1B2C4B" fill-rule="nonzero" d="M8 11.28a3.281 3.281 0 1 1 0-6.562 3.281 3.281 0 0 1 0 6.563zm7.19-4.565l-1.8-.337a5.625 5.625 0 0 0-.43-1.04L14 3.808a.394.394 0 0 0-.047-.497l-1.265-1.275a.384.384 0 0 0-.479 0l-1.546 1.004A6.047 6.047 0 0 0 9.583 2.6L9.247.81A.394.394 0 0 0 8.88.5H7.062a.403.403 0 0 0-.375.31L6.35 2.618a5.85 5.85 0 0 0-1.031.43l-1.51-1.03a.394.394 0 0 0-.478 0L2.038 3.312a.394.394 0 0 0 0 .478L3.04 5.347a5.85 5.85 0 0 0-.432 1.03L.8 6.716a.403.403 0 0 0-.3.347v1.875c.008.175.13.324.3.366l1.81.337c.108.367.253.721.43 1.06L2.02 12.2a.394.394 0 0 0 0 .478l1.293 1.256c.13.122.327.141.479.047l1.5-1.032c.325.178.667.323 1.021.432l.338 1.818c.049.186.221.311.412.3h1.82a.394.394 0 0 0 .365-.3l.337-1.8c.372-.107.73-.255 1.07-.44l1.518 1.04c.14.112.338.112.478 0l1.284-1.312a.384.384 0 0 0 .047-.478l-1.031-1.51c.181-.34.329-.698.44-1.068l1.81-.338a.394.394 0 0 0 .3-.356V7.062a.403.403 0 0 0-.31-.347z"/>
    </g>
</svg>
