<svg xmlns="http://www.w3.org/2000/svg" width="16" height="16" viewBox="0 0 16 16">
    <g fill="none" fill-rule="evenodd">
        <path fill="#1B2C4B" fill-rule="nonzero" d="M11.272 9.434c1.594 0 2.885-1.264 2.885-2.823 0-1.56-1.291-2.824-2.885-2.824-1.593 0-2.884 1.264-2.884 2.824 0 1.559 1.291 2.823 2.884 2.823zm-3.846 0h.542l.177-.174a4.032 4.032 0 0 1 .33-5.669 4.247 4.247 0 0 1 5.8.108 4.031 4.031 0 0 1 .11 5.677c-1.528 1.614-4.086 1.756-5.792.323l-.205.146v.503L5.168 13.5l-.934-.914 3.192-3.152zM.5 3.458h6.534v.914H.5v-.914zM.5 6.2h5.6v.914H.5V6.2zm0 2.742h4.667v.913H.5v-.913z"/>
    </g>
</svg>
