<svg xmlns="http://www.w3.org/2000/svg" xmlns:xlink="http://www.w3.org/1999/xlink" width="16" height="16" viewBox="0 0 16 16">
    <defs>
        <path id="a" d="M15.5 4.677h-3.998l1.789-1.79a6.995 6.995 0 0 0-7.95-1.14 7 7 0 0 0 1.582 13.064 6.996 6.996 0 0 0 7.447-3.004l.72.72A7.995 7.995 0 0 1 .545 8.846 8 8 0 0 1 4.95.83a7.994 7.994 0 0 1 9.042 1.356L15.5.677v4zm-9.996 6h5.998v1H5.504v-1zm.5-5h1v4h-1v-4zm2-1h.999v5h-1v-5zm2.018 2h1v3h-1v-3z"/>
    </defs>
    <g fill="none" fill-rule="evenodd">
        <use fill="#1B2C4B" fill-rule="nonzero" xlink:href="#a"/>
    </g>
</svg>
