<svg xmlns="http://www.w3.org/2000/svg" width="16" height="16" viewBox="0 0 16 16">
    <g fill="none" fill-rule="evenodd">
        <path fill="#1B2C4B" fill-rule="nonzero" d="M11.5 3.6a5.002 5.002 0 0 1-1 9.9v1.66a.34.34 0 0 1-.58.24L7.6 13.08a.34.34 0 0 1 0-.48l2.32-2.34a.34.34 0 0 1 .58.24v2a4 4 0 0 0 1-7.874V7.5a1 1 0 0 1-1 1h-9a1 1 0 0 1-1-1V1.6l5.21 3.79a.47.47 0 0 0 .58 0L11.5 1.6v2zm-5 8.57v2.99a.34.34 0 0 1-.58.24L3.6 13.08a.34.34 0 0 1 0-.48l2.32-2.34a.34.34 0 0 1 .58.24v1.67zM6 4.37L.94.69A1 1 0 0 1 1.5.5h9a1 1 0 0 1 .56.19L6 4.37z"/>
    </g>
</svg>
