<svg xmlns="http://www.w3.org/2000/svg" xmlns:xlink="http://www.w3.org/1999/xlink" width="16" height="16" viewBox="0 0 16 16">
    <defs>
        <path id="a" d="M11.96 10.619a2.02 2.02 0 0 0-1.304.495L5.93 8.426c.035-.147.055-.296.06-.447a2.293 2.293 0 0 0-.06-.456l4.678-2.659a2.03 2.03 0 0 0 2.507.159 1.912 1.912 0 0 0 .67-2.361c-.38-.842-1.312-1.31-2.235-1.12-.923.19-1.582.986-1.58 1.905.006.154.026.307.06.456l-4.678 2.66a2.019 2.019 0 0 0-1.353-.525c-.894-.003-1.68.575-1.923 1.414a1.92 1.92 0 0 0 .881 2.185 2.03 2.03 0 0 0 2.395-.24l4.728 2.687c-.04.136-.06.276-.06.417a1.938 1.938 0 0 0 1.199 1.839 2.028 2.028 0 0 0 2.195-.405c.578-.56.747-1.408.427-2.138a1.994 1.994 0 0 0-1.88-1.178z"/>
    </defs>
    <g fill="none" fill-rule="evenodd">
        <use fill="#1B2C4B" fill-rule="nonzero" xlink:href="#a"/>
    </g>
</svg>
