<svg xmlns="http://www.w3.org/2000/svg" width="14" height="24" viewBox="0 0 14 24">
    <g fill="none" fill-rule="evenodd">
        <path fill="#293956" d="M10 9v1.21l-1.12.17v4.24l4 6.15a.82.82 0 0 1-.64 1.28H1.78a.82.82 0 0 1-.64-1.28l4-6.15v-4.29l-1.08-.12V9H10zm0-1H4.06a1 1 0 0 0-1 1v1.21a1 1 0 0 0 .85 1h.26v3.08L.3 20.21a1.84 1.84 0 0 0-.08 1.88 1.77 1.77 0 0 0 1.56.94h10.47a1.76 1.76 0 0 0 1.55-.94 1.81 1.81 0 0 0-.07-1.88l-3.88-5.94v-3.06h.27a1 1 0 0 0 .88-1V9a1 1 0 0 0-1-1z"/>
        <path fill="#9AA2AF" d="M5.86 2a1 1 0 1 1 0-2 1 1 0 0 1 0 2zm0 5a1 1 0 1 1 0-2 1 1 0 0 1 0 2zm2.5-2a1.5 1.5 0 1 1 0-3 1.5 1.5 0 0 1 0 3zM8.41 16H5.28L2 21h9.69z"/>
    </g>
</svg>
