<svg xmlns="http://www.w3.org/2000/svg" width="16" height="16" viewBox="0 0 16 16">
    <g fill="none" fill-rule="evenodd">
        <path fill="#1B2C4B" fill-rule="nonzero" d="M12.107 14.092h-8.25V7.034h8.25v7.058zm0-8.475h-.532V4.21a3.538 3.538 0 0 0-1.69-3.207 3.462 3.462 0 0 0-3.596 0A3.538 3.538 0 0 0 4.6 4.21h1.32a2.182 2.182 0 0 1 2.168-2.053c1.145 0 2.094.898 2.168 2.053v1.407H3.893A1.41 1.41 0 0 0 2.5 7.034v7.058A1.41 1.41 0 0 0 3.893 15.5h8.25a1.41 1.41 0 0 0 1.357-1.408V7.034a1.41 1.41 0 0 0-1.393-1.417zm-4.015 6.354c.568 0 1.08-.346 1.296-.877.217-.53.095-1.14-.308-1.545a1.392 1.392 0 0 0-1.531-.301 1.418 1.418 0 0 0-.86 1.315 1.41 1.41 0 0 0 1.403 1.408z"/>
    </g>
</svg>
