<svg xmlns="http://www.w3.org/2000/svg" width="16" height="16" viewBox="0 0 16 16">
    <g fill="none" fill-rule="evenodd">
        <path fill="#1B2C4B" fill-rule="nonzero" d="M14 4.695c.442 0 .8-.37.8-.825V.825A.813.813 0 0 0 14 0h-2.936c-.442 0-.8.37-.8.825V1.94H5.736V.825a.813.813 0 0 0-.8-.825H2c-.442 0-.8.37-.8.825V3.87c0 .456.358.825.8.825h2.936c.442 0 .8-.37.8-.825V2.764h4.528V3.87c0 .456.358.825.8.825h1.072v6.288h-1.072c-.442 0-.8.37-.8.825v1.114h-6.92l1.496-1.56a.422.422 0 0 0 0-.577.394.394 0 0 0-.568 0l-2.176 2.253a.42.42 0 0 0 0 .586l2.176 2.252a.394.394 0 0 0 .28.124.402.402 0 0 0 .288-.124.43.43 0 0 0 0-.586l-1.496-1.543h6.92v1.106c0 .456.358.825.8.825H14c.442 0 .8-.37.8-.825v-3.045a.813.813 0 0 0-.8-.825h-1.064V4.695H14zM4.936 3.87H2V.825h2.936V3.87zM14 14.853h-2.936v-3.045H14v3.045zM11.064.825H14V3.87h-2.936V.825z"/>
    </g>
</svg>
