<svg xmlns="http://www.w3.org/2000/svg" width="17" height="16" viewBox="0 0 17 16">
    <g fill="none" fill-rule="evenodd">
        <path fill="#1B2C4B" fill-rule="nonzero" d="M15.938 2h-.876V1H14v1h-2V1h-1.063v1H9V1H8v1H6V1H4.937v1H3V1H1.937v1h-.875C.477 2 0 2.448 0 3v10c0 .552.476 1 1.063 1h14.874c.587 0 1.063-.448 1.063-1V3c0-.552-.476-1-1.063-1zM16 5.83V13H1V3h.929v1H3V3h1.929v1H6V3h1.964v1h1.072V3h1.893v1H12V3h1.929v1H15V3h1v2.83zM5 6H3v1h2v1H4v1h1v1H3v1h3V6H5zm5 1V6H7v5h3V8H8V7h2zM9 9v1H8V9h1zm5-2V6h-3v3h2v1h-2v1h3V8h-2V7h2z"/>
    </g>
</svg>
